<?xml version="1.0" encoding="UTF-8" ?>
<svg version="1.1" width="64" height="32" xmlns="http://www.w3.org/2000/svg" shape-rendering="crispEdges">
<rect x="22" y="0" width="1" height="1" fill="#000000" />
<rect x="23" y="0" width="1" height="1" fill="#000000" />
<rect x="24" y="0" width="1" height="1" fill="#000000" />
<rect x="25" y="0" width="1" height="1" fill="#000000" />
<rect x="26" y="0" width="1" height="1" fill="#000000" />
<rect x="27" y="0" width="1" height="1" fill="#000000" />
<rect x="28" y="0" width="1" height="1" fill="#000000" />
<rect x="29" y="0" width="1" height="1" fill="#000000" />
<rect x="30" y="0" width="1" height="1" fill="#000000" />
<rect x="31" y="0" width="1" height="1" fill="#000000" />
<rect x="32" y="0" width="1" height="1" fill="#000000" />
<rect x="33" y="0" width="1" height="1" fill="#000000" />
<rect x="34" y="0" width="1" height="1" fill="#000000" />
<rect x="35" y="0" width="1" height="1" fill="#000000" />
<rect x="36" y="0" width="1" height="1" fill="#000000" />
<rect x="37" y="0" width="1" height="1" fill="#000000" />
<rect x="38" y="0" width="1" height="1" fill="#000000" />
<rect x="39" y="0" width="1" height="1" fill="#000000" />
<rect x="40" y="0" width="1" height="1" fill="#000000" />
<rect x="41" y="0" width="1" height="1" fill="#000000" />
<rect x="21" y="1" width="1" height="1" fill="#000000" />
<rect x="22" y="1" width="1" height="1" fill="#AC3232" />
<rect x="23" y="1" width="1" height="1" fill="#AC3232" />
<rect x="24" y="1" width="1" height="1" fill="#AC3232" />
<rect x="25" y="1" width="1" height="1" fill="#AC3232" />
<rect x="26" y="1" width="1" height="1" fill="#AC3232" />
<rect x="27" y="1" width="1" height="1" fill="#AC3232" />
<rect x="28" y="1" width="1" height="1" fill="#AC3232" />
<rect x="29" y="1" width="1" height="1" fill="#AC3232" />
<rect x="30" y="1" width="1" height="1" fill="#AC3232" />
<rect x="31" y="1" width="1" height="1" fill="#AC3232" />
<rect x="32" y="1" width="1" height="1" fill="#AC3232" />
<rect x="33" y="1" width="1" height="1" fill="#AC3232" />
<rect x="34" y="1" width="1" height="1" fill="#AC3232" />
<rect x="35" y="1" width="1" height="1" fill="#AC3232" />
<rect x="36" y="1" width="1" height="1" fill="#AC3232" />
<rect x="37" y="1" width="1" height="1" fill="#AC3232" />
<rect x="38" y="1" width="1" height="1" fill="#AC3232" />
<rect x="39" y="1" width="1" height="1" fill="#AC3232" />
<rect x="40" y="1" width="1" height="1" fill="#AC3232" />
<rect x="41" y="1" width="1" height="1" fill="#AC3232" />
<rect x="42" y="1" width="1" height="1" fill="#000000" />
<rect x="21" y="2" width="1" height="1" fill="#000000" />
<rect x="22" y="2" width="1" height="1" fill="#AC3232" />
<rect x="23" y="2" width="1" height="1" fill="#AC3232" />
<rect x="24" y="2" width="1" height="1" fill="#AC3232" />
<rect x="25" y="2" width="1" height="1" fill="#AC3232" />
<rect x="26" y="2" width="1" height="1" fill="#AC3232" />
<rect x="27" y="2" width="1" height="1" fill="#AC3232" />
<rect x="28" y="2" width="1" height="1" fill="#AC3232" />
<rect x="29" y="2" width="1" height="1" fill="#AC3232" />
<rect x="30" y="2" width="1" height="1" fill="#AC3232" />
<rect x="31" y="2" width="1" height="1" fill="#AC3232" />
<rect x="32" y="2" width="1" height="1" fill="#AC3232" />
<rect x="33" y="2" width="1" height="1" fill="#AC3232" />
<rect x="34" y="2" width="1" height="1" fill="#AC3232" />
<rect x="35" y="2" width="1" height="1" fill="#AC3232" />
<rect x="36" y="2" width="1" height="1" fill="#AC3232" />
<rect x="37" y="2" width="1" height="1" fill="#AC3232" />
<rect x="38" y="2" width="1" height="1" fill="#AC3232" />
<rect x="39" y="2" width="1" height="1" fill="#AC3232" />
<rect x="40" y="2" width="1" height="1" fill="#AC3232" />
<rect x="41" y="2" width="1" height="1" fill="#AC3232" />
<rect x="42" y="2" width="1" height="1" fill="#000000" />
<rect x="21" y="3" width="1" height="1" fill="#000000" />
<rect x="22" y="3" width="1" height="1" fill="#AC3232" />
<rect x="23" y="3" width="1" height="1" fill="#AC3232" />
<rect x="24" y="3" width="1" height="1" fill="#AC3232" />
<rect x="25" y="3" width="1" height="1" fill="#AC3232" />
<rect x="26" y="3" width="1" height="1" fill="#AC3232" />
<rect x="27" y="3" width="1" height="1" fill="#AC3232" />
<rect x="28" y="3" width="1" height="1" fill="#AC3232" />
<rect x="29" y="3" width="1" height="1" fill="#AC3232" />
<rect x="30" y="3" width="1" height="1" fill="#AC3232" />
<rect x="31" y="3" width="1" height="1" fill="#AC3232" />
<rect x="32" y="3" width="1" height="1" fill="#AC3232" />
<rect x="33" y="3" width="1" height="1" fill="#AC3232" />
<rect x="34" y="3" width="1" height="1" fill="#AC3232" />
<rect x="35" y="3" width="1" height="1" fill="#AC3232" />
<rect x="36" y="3" width="1" height="1" fill="#AC3232" />
<rect x="37" y="3" width="1" height="1" fill="#AC3232" />
<rect x="38" y="3" width="1" height="1" fill="#AC3232" />
<rect x="39" y="3" width="1" height="1" fill="#AC3232" />
<rect x="40" y="3" width="1" height="1" fill="#AC3232" />
<rect x="41" y="3" width="1" height="1" fill="#AC3232" />
<rect x="42" y="3" width="1" height="1" fill="#000000" />
<rect x="22" y="4" width="1" height="1" fill="#000000" />
<rect x="23" y="4" width="1" height="1" fill="#AC3232" />
<rect x="24" y="4" width="1" height="1" fill="#AC3232" />
<rect x="25" y="4" width="1" height="1" fill="#AC3232" />
<rect x="26" y="4" width="1" height="1" fill="#AC3232" />
<rect x="27" y="4" width="1" height="1" fill="#AC3232" />
<rect x="28" y="4" width="1" height="1" fill="#AC3232" />
<rect x="29" y="4" width="1" height="1" fill="#AC3232" />
<rect x="30" y="4" width="1" height="1" fill="#AC3232" />
<rect x="31" y="4" width="1" height="1" fill="#AC3232" />
<rect x="32" y="4" width="1" height="1" fill="#AC3232" />
<rect x="33" y="4" width="1" height="1" fill="#AC3232" />
<rect x="34" y="4" width="1" height="1" fill="#AC3232" />
<rect x="35" y="4" width="1" height="1" fill="#AC3232" />
<rect x="36" y="4" width="1" height="1" fill="#AC3232" />
<rect x="37" y="4" width="1" height="1" fill="#AC3232" />
<rect x="38" y="4" width="1" height="1" fill="#AC3232" />
<rect x="39" y="4" width="1" height="1" fill="#AC3232" />
<rect x="40" y="4" width="1" height="1" fill="#AC3232" />
<rect x="41" y="4" width="1" height="1" fill="#000000" />
<rect x="22" y="5" width="1" height="1" fill="#000000" />
<rect x="23" y="5" width="1" height="1" fill="#AC3232" />
<rect x="24" y="5" width="1" height="1" fill="#AC3232" />
<rect x="25" y="5" width="1" height="1" fill="#AC3232" />
<rect x="26" y="5" width="1" height="1" fill="#AC3232" />
<rect x="27" y="5" width="1" height="1" fill="#AC3232" />
<rect x="28" y="5" width="1" height="1" fill="#AC3232" />
<rect x="29" y="5" width="1" height="1" fill="#AC3232" />
<rect x="30" y="5" width="1" height="1" fill="#AC3232" />
<rect x="31" y="5" width="1" height="1" fill="#AC3232" />
<rect x="32" y="5" width="1" height="1" fill="#AC3232" />
<rect x="33" y="5" width="1" height="1" fill="#AC3232" />
<rect x="34" y="5" width="1" height="1" fill="#AC3232" />
<rect x="35" y="5" width="1" height="1" fill="#AC3232" />
<rect x="36" y="5" width="1" height="1" fill="#AC3232" />
<rect x="37" y="5" width="1" height="1" fill="#AC3232" />
<rect x="38" y="5" width="1" height="1" fill="#AC3232" />
<rect x="39" y="5" width="1" height="1" fill="#AC3232" />
<rect x="40" y="5" width="1" height="1" fill="#AC3232" />
<rect x="41" y="5" width="1" height="1" fill="#000000" />
<rect x="22" y="6" width="1" height="1" fill="#000000" />
<rect x="23" y="6" width="1" height="1" fill="#AC3232" />
<rect x="24" y="6" width="1" height="1" fill="#AC3232" />
<rect x="25" y="6" width="1" height="1" fill="#AC3232" />
<rect x="26" y="6" width="1" height="1" fill="#AC3232" />
<rect x="27" y="6" width="1" height="1" fill="#AC3232" />
<rect x="28" y="6" width="1" height="1" fill="#AC3232" />
<rect x="29" y="6" width="1" height="1" fill="#AC3232" />
<rect x="30" y="6" width="1" height="1" fill="#AC3232" />
<rect x="31" y="6" width="1" height="1" fill="#AC3232" />
<rect x="32" y="6" width="1" height="1" fill="#AC3232" />
<rect x="33" y="6" width="1" height="1" fill="#AC3232" />
<rect x="34" y="6" width="1" height="1" fill="#AC3232" />
<rect x="35" y="6" width="1" height="1" fill="#AC3232" />
<rect x="36" y="6" width="1" height="1" fill="#AC3232" />
<rect x="37" y="6" width="1" height="1" fill="#AC3232" />
<rect x="38" y="6" width="1" height="1" fill="#AC3232" />
<rect x="39" y="6" width="1" height="1" fill="#AC3232" />
<rect x="40" y="6" width="1" height="1" fill="#AC3232" />
<rect x="41" y="6" width="1" height="1" fill="#000000" />
<rect x="23" y="7" width="1" height="1" fill="#000000" />
<rect x="24" y="7" width="1" height="1" fill="#AC3232" />
<rect x="25" y="7" width="1" height="1" fill="#AC3232" />
<rect x="26" y="7" width="1" height="1" fill="#AC3232" />
<rect x="27" y="7" width="1" height="1" fill="#AC3232" />
<rect x="28" y="7" width="1" height="1" fill="#AC3232" />
<rect x="29" y="7" width="1" height="1" fill="#AC3232" />
<rect x="30" y="7" width="1" height="1" fill="#AC3232" />
<rect x="31" y="7" width="1" height="1" fill="#AC3232" />
<rect x="32" y="7" width="1" height="1" fill="#AC3232" />
<rect x="33" y="7" width="1" height="1" fill="#AC3232" />
<rect x="34" y="7" width="1" height="1" fill="#AC3232" />
<rect x="35" y="7" width="1" height="1" fill="#AC3232" />
<rect x="36" y="7" width="1" height="1" fill="#AC3232" />
<rect x="37" y="7" width="1" height="1" fill="#AC3232" />
<rect x="38" y="7" width="1" height="1" fill="#AC3232" />
<rect x="39" y="7" width="1" height="1" fill="#AC3232" />
<rect x="40" y="7" width="1" height="1" fill="#000000" />
<rect x="23" y="8" width="1" height="1" fill="#000000" />
<rect x="24" y="8" width="1" height="1" fill="#AC3232" />
<rect x="25" y="8" width="1" height="1" fill="#AC3232" />
<rect x="26" y="8" width="1" height="1" fill="#AC3232" />
<rect x="27" y="8" width="1" height="1" fill="#AC3232" />
<rect x="28" y="8" width="1" height="1" fill="#AC3232" />
<rect x="29" y="8" width="1" height="1" fill="#AC3232" />
<rect x="30" y="8" width="1" height="1" fill="#AC3232" />
<rect x="31" y="8" width="1" height="1" fill="#AC3232" />
<rect x="32" y="8" width="1" height="1" fill="#AC3232" />
<rect x="33" y="8" width="1" height="1" fill="#AC3232" />
<rect x="34" y="8" width="1" height="1" fill="#AC3232" />
<rect x="35" y="8" width="1" height="1" fill="#AC3232" />
<rect x="36" y="8" width="1" height="1" fill="#AC3232" />
<rect x="37" y="8" width="1" height="1" fill="#AC3232" />
<rect x="38" y="8" width="1" height="1" fill="#AC3232" />
<rect x="39" y="8" width="1" height="1" fill="#AC3232" />
<rect x="40" y="8" width="1" height="1" fill="#000000" />
<rect x="23" y="9" width="1" height="1" fill="#000000" />
<rect x="24" y="9" width="1" height="1" fill="#AC3232" />
<rect x="25" y="9" width="1" height="1" fill="#AC3232" />
<rect x="26" y="9" width="1" height="1" fill="#AC3232" />
<rect x="27" y="9" width="1" height="1" fill="#AC3232" />
<rect x="28" y="9" width="1" height="1" fill="#AC3232" />
<rect x="29" y="9" width="1" height="1" fill="#AC3232" />
<rect x="30" y="9" width="1" height="1" fill="#AC3232" />
<rect x="31" y="9" width="1" height="1" fill="#AC3232" />
<rect x="32" y="9" width="1" height="1" fill="#AC3232" />
<rect x="33" y="9" width="1" height="1" fill="#AC3232" />
<rect x="34" y="9" width="1" height="1" fill="#AC3232" />
<rect x="35" y="9" width="1" height="1" fill="#AC3232" />
<rect x="36" y="9" width="1" height="1" fill="#AC3232" />
<rect x="37" y="9" width="1" height="1" fill="#AC3232" />
<rect x="38" y="9" width="1" height="1" fill="#AC3232" />
<rect x="39" y="9" width="1" height="1" fill="#AC3232" />
<rect x="40" y="9" width="1" height="1" fill="#000000" />
<rect x="24" y="10" width="1" height="1" fill="#000000" />
<rect x="25" y="10" width="1" height="1" fill="#AC3232" />
<rect x="26" y="10" width="1" height="1" fill="#AC3232" />
<rect x="27" y="10" width="1" height="1" fill="#AC3232" />
<rect x="28" y="10" width="1" height="1" fill="#AC3232" />
<rect x="29" y="10" width="1" height="1" fill="#AC3232" />
<rect x="30" y="10" width="1" height="1" fill="#AC3232" />
<rect x="31" y="10" width="1" height="1" fill="#AC3232" />
<rect x="32" y="10" width="1" height="1" fill="#AC3232" />
<rect x="33" y="10" width="1" height="1" fill="#AC3232" />
<rect x="34" y="10" width="1" height="1" fill="#AC3232" />
<rect x="35" y="10" width="1" height="1" fill="#AC3232" />
<rect x="36" y="10" width="1" height="1" fill="#AC3232" />
<rect x="37" y="10" width="1" height="1" fill="#AC3232" />
<rect x="38" y="10" width="1" height="1" fill="#AC3232" />
<rect x="39" y="10" width="1" height="1" fill="#000000" />
<rect x="24" y="11" width="1" height="1" fill="#000000" />
<rect x="25" y="11" width="1" height="1" fill="#AC3232" />
<rect x="26" y="11" width="1" height="1" fill="#AC3232" />
<rect x="27" y="11" width="1" height="1" fill="#AC3232" />
<rect x="28" y="11" width="1" height="1" fill="#AC3232" />
<rect x="29" y="11" width="1" height="1" fill="#AC3232" />
<rect x="30" y="11" width="1" height="1" fill="#AC3232" />
<rect x="31" y="11" width="1" height="1" fill="#AC3232" />
<rect x="32" y="11" width="1" height="1" fill="#AC3232" />
<rect x="33" y="11" width="1" height="1" fill="#AC3232" />
<rect x="34" y="11" width="1" height="1" fill="#AC3232" />
<rect x="35" y="11" width="1" height="1" fill="#AC3232" />
<rect x="36" y="11" width="1" height="1" fill="#AC3232" />
<rect x="37" y="11" width="1" height="1" fill="#AC3232" />
<rect x="38" y="11" width="1" height="1" fill="#AC3232" />
<rect x="39" y="11" width="1" height="1" fill="#000000" />
<rect x="24" y="12" width="1" height="1" fill="#000000" />
<rect x="25" y="12" width="1" height="1" fill="#AC3232" />
<rect x="26" y="12" width="1" height="1" fill="#AC3232" />
<rect x="27" y="12" width="1" height="1" fill="#AC3232" />
<rect x="28" y="12" width="1" height="1" fill="#AC3232" />
<rect x="29" y="12" width="1" height="1" fill="#AC3232" />
<rect x="30" y="12" width="1" height="1" fill="#AC3232" />
<rect x="31" y="12" width="1" height="1" fill="#AC3232" />
<rect x="32" y="12" width="1" height="1" fill="#AC3232" />
<rect x="33" y="12" width="1" height="1" fill="#AC3232" />
<rect x="34" y="12" width="1" height="1" fill="#AC3232" />
<rect x="35" y="12" width="1" height="1" fill="#AC3232" />
<rect x="36" y="12" width="1" height="1" fill="#AC3232" />
<rect x="37" y="12" width="1" height="1" fill="#AC3232" />
<rect x="38" y="12" width="1" height="1" fill="#AC3232" />
<rect x="39" y="12" width="1" height="1" fill="#000000" />
<rect x="25" y="13" width="1" height="1" fill="#000000" />
<rect x="26" y="13" width="1" height="1" fill="#AC3232" />
<rect x="27" y="13" width="1" height="1" fill="#AC3232" />
<rect x="28" y="13" width="1" height="1" fill="#AC3232" />
<rect x="29" y="13" width="1" height="1" fill="#AC3232" />
<rect x="30" y="13" width="1" height="1" fill="#AC3232" />
<rect x="31" y="13" width="1" height="1" fill="#AC3232" />
<rect x="32" y="13" width="1" height="1" fill="#AC3232" />
<rect x="33" y="13" width="1" height="1" fill="#AC3232" />
<rect x="34" y="13" width="1" height="1" fill="#AC3232" />
<rect x="35" y="13" width="1" height="1" fill="#AC3232" />
<rect x="36" y="13" width="1" height="1" fill="#AC3232" />
<rect x="37" y="13" width="1" height="1" fill="#AC3232" />
<rect x="38" y="13" width="1" height="1" fill="#000000" />
<rect x="25" y="14" width="1" height="1" fill="#000000" />
<rect x="26" y="14" width="1" height="1" fill="#AC3232" />
<rect x="27" y="14" width="1" height="1" fill="#AC3232" />
<rect x="28" y="14" width="1" height="1" fill="#AC3232" />
<rect x="29" y="14" width="1" height="1" fill="#AC3232" />
<rect x="30" y="14" width="1" height="1" fill="#AC3232" />
<rect x="31" y="14" width="1" height="1" fill="#AC3232" />
<rect x="32" y="14" width="1" height="1" fill="#AC3232" />
<rect x="33" y="14" width="1" height="1" fill="#AC3232" />
<rect x="34" y="14" width="1" height="1" fill="#AC3232" />
<rect x="35" y="14" width="1" height="1" fill="#AC3232" />
<rect x="36" y="14" width="1" height="1" fill="#AC3232" />
<rect x="37" y="14" width="1" height="1" fill="#AC3232" />
<rect x="38" y="14" width="1" height="1" fill="#000000" />
<rect x="25" y="15" width="1" height="1" fill="#000000" />
<rect x="26" y="15" width="1" height="1" fill="#AC3232" />
<rect x="27" y="15" width="1" height="1" fill="#AC3232" />
<rect x="28" y="15" width="1" height="1" fill="#AC3232" />
<rect x="29" y="15" width="1" height="1" fill="#AC3232" />
<rect x="30" y="15" width="1" height="1" fill="#AC3232" />
<rect x="31" y="15" width="1" height="1" fill="#AC3232" />
<rect x="32" y="15" width="1" height="1" fill="#AC3232" />
<rect x="33" y="15" width="1" height="1" fill="#AC3232" />
<rect x="34" y="15" width="1" height="1" fill="#AC3232" />
<rect x="35" y="15" width="1" height="1" fill="#AC3232" />
<rect x="36" y="15" width="1" height="1" fill="#AC3232" />
<rect x="37" y="15" width="1" height="1" fill="#AC3232" />
<rect x="38" y="15" width="1" height="1" fill="#000000" />
<rect x="26" y="16" width="1" height="1" fill="#000000" />
<rect x="27" y="16" width="1" height="1" fill="#AC3232" />
<rect x="28" y="16" width="1" height="1" fill="#AC3232" />
<rect x="29" y="16" width="1" height="1" fill="#AC3232" />
<rect x="30" y="16" width="1" height="1" fill="#AC3232" />
<rect x="31" y="16" width="1" height="1" fill="#AC3232" />
<rect x="32" y="16" width="1" height="1" fill="#AC3232" />
<rect x="33" y="16" width="1" height="1" fill="#AC3232" />
<rect x="34" y="16" width="1" height="1" fill="#AC3232" />
<rect x="35" y="16" width="1" height="1" fill="#AC3232" />
<rect x="36" y="16" width="1" height="1" fill="#AC3232" />
<rect x="37" y="16" width="1" height="1" fill="#000000" />
<rect x="23" y="17" width="1" height="1" fill="#000000" />
<rect x="24" y="17" width="1" height="1" fill="#000000" />
<rect x="25" y="17" width="1" height="1" fill="#000000" />
<rect x="26" y="17" width="1" height="1" fill="#000000" />
<rect x="27" y="17" width="1" height="1" fill="#AC3232" />
<rect x="28" y="17" width="1" height="1" fill="#AC3232" />
<rect x="29" y="17" width="1" height="1" fill="#AC3232" />
<rect x="30" y="17" width="1" height="1" fill="#AC3232" />
<rect x="31" y="17" width="1" height="1" fill="#AC3232" />
<rect x="32" y="17" width="1" height="1" fill="#AC3232" />
<rect x="33" y="17" width="1" height="1" fill="#AC3232" />
<rect x="34" y="17" width="1" height="1" fill="#AC3232" />
<rect x="35" y="17" width="1" height="1" fill="#AC3232" />
<rect x="36" y="17" width="1" height="1" fill="#AC3232" />
<rect x="37" y="17" width="1" height="1" fill="#000000" />
<rect x="38" y="17" width="1" height="1" fill="#000000" />
<rect x="39" y="17" width="1" height="1" fill="#000000" />
<rect x="40" y="17" width="1" height="1" fill="#000000" />
<rect x="22" y="18" width="1" height="1" fill="#000000" />
<rect x="23" y="18" width="1" height="1" fill="#AC3232" />
<rect x="24" y="18" width="1" height="1" fill="#AC3232" />
<rect x="25" y="18" width="1" height="1" fill="#AC3232" />
<rect x="26" y="18" width="1" height="1" fill="#AC3232" />
<rect x="27" y="18" width="1" height="1" fill="#AC3232" />
<rect x="28" y="18" width="1" height="1" fill="#AC3232" />
<rect x="29" y="18" width="1" height="1" fill="#AC3232" />
<rect x="30" y="18" width="1" height="1" fill="#AC3232" />
<rect x="31" y="18" width="1" height="1" fill="#AC3232" />
<rect x="32" y="18" width="1" height="1" fill="#AC3232" />
<rect x="33" y="18" width="1" height="1" fill="#AC3232" />
<rect x="34" y="18" width="1" height="1" fill="#AC3232" />
<rect x="35" y="18" width="1" height="1" fill="#AC3232" />
<rect x="36" y="18" width="1" height="1" fill="#AC3232" />
<rect x="37" y="18" width="1" height="1" fill="#AC3232" />
<rect x="38" y="18" width="1" height="1" fill="#AC3232" />
<rect x="39" y="18" width="1" height="1" fill="#AC3232" />
<rect x="40" y="18" width="1" height="1" fill="#AC3232" />
<rect x="41" y="18" width="1" height="1" fill="#000000" />
<rect x="23" y="19" width="1" height="1" fill="#000000" />
<rect x="24" y="19" width="1" height="1" fill="#AC3232" />
<rect x="25" y="19" width="1" height="1" fill="#AC3232" />
<rect x="26" y="19" width="1" height="1" fill="#AC3232" />
<rect x="27" y="19" width="1" height="1" fill="#AC3232" />
<rect x="28" y="19" width="1" height="1" fill="#AC3232" />
<rect x="29" y="19" width="1" height="1" fill="#AC3232" />
<rect x="30" y="19" width="1" height="1" fill="#AC3232" />
<rect x="31" y="19" width="1" height="1" fill="#AC3232" />
<rect x="32" y="19" width="1" height="1" fill="#AC3232" />
<rect x="33" y="19" width="1" height="1" fill="#AC3232" />
<rect x="34" y="19" width="1" height="1" fill="#AC3232" />
<rect x="35" y="19" width="1" height="1" fill="#AC3232" />
<rect x="36" y="19" width="1" height="1" fill="#AC3232" />
<rect x="37" y="19" width="1" height="1" fill="#AC3232" />
<rect x="38" y="19" width="1" height="1" fill="#AC3232" />
<rect x="39" y="19" width="1" height="1" fill="#AC3232" />
<rect x="40" y="19" width="1" height="1" fill="#000000" />
<rect x="24" y="20" width="1" height="1" fill="#000000" />
<rect x="25" y="20" width="1" height="1" fill="#AC3232" />
<rect x="26" y="20" width="1" height="1" fill="#AC3232" />
<rect x="27" y="20" width="1" height="1" fill="#AC3232" />
<rect x="28" y="20" width="1" height="1" fill="#AC3232" />
<rect x="29" y="20" width="1" height="1" fill="#AC3232" />
<rect x="30" y="20" width="1" height="1" fill="#AC3232" />
<rect x="31" y="20" width="1" height="1" fill="#AC3232" />
<rect x="32" y="20" width="1" height="1" fill="#AC3232" />
<rect x="33" y="20" width="1" height="1" fill="#AC3232" />
<rect x="34" y="20" width="1" height="1" fill="#AC3232" />
<rect x="35" y="20" width="1" height="1" fill="#AC3232" />
<rect x="36" y="20" width="1" height="1" fill="#AC3232" />
<rect x="37" y="20" width="1" height="1" fill="#AC3232" />
<rect x="38" y="20" width="1" height="1" fill="#AC3232" />
<rect x="39" y="20" width="1" height="1" fill="#000000" />
<rect x="25" y="21" width="1" height="1" fill="#000000" />
<rect x="26" y="21" width="1" height="1" fill="#000000" />
<rect x="27" y="21" width="1" height="1" fill="#AC3232" />
<rect x="28" y="21" width="1" height="1" fill="#AC3232" />
<rect x="29" y="21" width="1" height="1" fill="#AC3232" />
<rect x="30" y="21" width="1" height="1" fill="#AC3232" />
<rect x="31" y="21" width="1" height="1" fill="#AC3232" />
<rect x="32" y="21" width="1" height="1" fill="#AC3232" />
<rect x="33" y="21" width="1" height="1" fill="#AC3232" />
<rect x="34" y="21" width="1" height="1" fill="#AC3232" />
<rect x="35" y="21" width="1" height="1" fill="#AC3232" />
<rect x="36" y="21" width="1" height="1" fill="#AC3232" />
<rect x="37" y="21" width="1" height="1" fill="#000000" />
<rect x="38" y="21" width="1" height="1" fill="#000000" />
<rect x="27" y="22" width="1" height="1" fill="#000000" />
<rect x="28" y="22" width="1" height="1" fill="#AC3232" />
<rect x="29" y="22" width="1" height="1" fill="#AC3232" />
<rect x="30" y="22" width="1" height="1" fill="#AC3232" />
<rect x="31" y="22" width="1" height="1" fill="#AC3232" />
<rect x="32" y="22" width="1" height="1" fill="#AC3232" />
<rect x="33" y="22" width="1" height="1" fill="#AC3232" />
<rect x="34" y="22" width="1" height="1" fill="#AC3232" />
<rect x="35" y="22" width="1" height="1" fill="#AC3232" />
<rect x="36" y="22" width="1" height="1" fill="#000000" />
<rect x="28" y="23" width="1" height="1" fill="#000000" />
<rect x="29" y="23" width="1" height="1" fill="#AC3232" />
<rect x="30" y="23" width="1" height="1" fill="#AC3232" />
<rect x="31" y="23" width="1" height="1" fill="#AC3232" />
<rect x="32" y="23" width="1" height="1" fill="#AC3232" />
<rect x="33" y="23" width="1" height="1" fill="#AC3232" />
<rect x="34" y="23" width="1" height="1" fill="#AC3232" />
<rect x="35" y="23" width="1" height="1" fill="#000000" />
<rect x="29" y="24" width="1" height="1" fill="#000000" />
<rect x="30" y="24" width="1" height="1" fill="#000000" />
<rect x="31" y="24" width="1" height="1" fill="#AC3232" />
<rect x="32" y="24" width="1" height="1" fill="#AC3232" />
<rect x="33" y="24" width="1" height="1" fill="#000000" />
<rect x="34" y="24" width="1" height="1" fill="#000000" />
<rect x="31" y="25" width="1" height="1" fill="#000000" />
<rect x="32" y="25" width="1" height="1" fill="#000000" />
</svg>