<?xml version="1.0" encoding="UTF-8" ?>
<svg version="1.1" width="64" height="4" xmlns="http://www.w3.org/2000/svg" shape-rendering="crispEdges">
<rect x="0" y="0" width="1" height="1" fill="#FFFFFF" />
<rect x="1" y="0" width="1" height="1" fill="#FFFFFF" />
<rect x="2" y="0" width="1" height="1" fill="#FFFFFF" />
<rect x="3" y="0" width="1" height="1" fill="#FFFFFF" />
<rect x="4" y="0" width="1" height="1" fill="#FFFFFF" />
<rect x="5" y="0" width="1" height="1" fill="#FFFFFF" />
<rect x="6" y="0" width="1" height="1" fill="#FFFFFF" />
<rect x="7" y="0" width="1" height="1" fill="#FFFFFF" />
<rect x="8" y="0" width="1" height="1" fill="#FFFFFF" />
<rect x="9" y="0" width="1" height="1" fill="#FFFFFF" />
<rect x="10" y="0" width="1" height="1" fill="#FFFFFF" />
<rect x="11" y="0" width="1" height="1" fill="#FFFFFF" />
<rect x="12" y="0" width="1" height="1" fill="#FFFFFF" />
<rect x="13" y="0" width="1" height="1" fill="#FFFFFF" />
<rect x="14" y="0" width="1" height="1" fill="#FFFFFF" />
<rect x="15" y="0" width="1" height="1" fill="#FFFFFF" />
<rect x="16" y="0" width="1" height="1" fill="#FFFFFF" />
<rect x="17" y="0" width="1" height="1" fill="#FFFFFF" />
<rect x="18" y="0" width="1" height="1" fill="#FFFFFF" />
<rect x="19" y="0" width="1" height="1" fill="#FFFFFF" />
<rect x="20" y="0" width="1" height="1" fill="#FFFFFF" />
<rect x="21" y="0" width="1" height="1" fill="#FFFFFF" />
<rect x="22" y="0" width="1" height="1" fill="#FFFFFF" />
<rect x="23" y="0" width="1" height="1" fill="#FFFFFF" />
<rect x="24" y="0" width="1" height="1" fill="#FFFFFF" />
<rect x="25" y="0" width="1" height="1" fill="#FFFFFF" />
<rect x="26" y="0" width="1" height="1" fill="#FFFFFF" />
<rect x="27" y="0" width="1" height="1" fill="#FFFFFF" />
<rect x="28" y="0" width="1" height="1" fill="#FFFFFF" />
<rect x="29" y="0" width="1" height="1" fill="#FFFFFF" />
<rect x="30" y="0" width="1" height="1" fill="#FFFFFF" />
<rect x="31" y="0" width="1" height="1" fill="#FFFFFF" />
<rect x="32" y="0" width="1" height="1" fill="#FFFFFF" />
<rect x="33" y="0" width="1" height="1" fill="#FFFFFF" />
<rect x="34" y="0" width="1" height="1" fill="#FFFFFF" />
<rect x="35" y="0" width="1" height="1" fill="#FFFFFF" />
<rect x="36" y="0" width="1" height="1" fill="#FFFFFF" />
<rect x="37" y="0" width="1" height="1" fill="#FFFFFF" />
<rect x="38" y="0" width="1" height="1" fill="#FFFFFF" />
<rect x="39" y="0" width="1" height="1" fill="#FFFFFF" />
<rect x="40" y="0" width="1" height="1" fill="#FFFFFF" />
<rect x="41" y="0" width="1" height="1" fill="#FFFFFF" />
<rect x="42" y="0" width="1" height="1" fill="#FFFFFF" />
<rect x="43" y="0" width="1" height="1" fill="#FFFFFF" />
<rect x="44" y="0" width="1" height="1" fill="#FFFFFF" />
<rect x="45" y="0" width="1" height="1" fill="#FFFFFF" />
<rect x="46" y="0" width="1" height="1" fill="#FFFFFF" />
<rect x="47" y="0" width="1" height="1" fill="#FFFFFF" />
<rect x="48" y="0" width="1" height="1" fill="#FFFFFF" />
<rect x="49" y="0" width="1" height="1" fill="#FFFFFF" />
<rect x="50" y="0" width="1" height="1" fill="#FFFFFF" />
<rect x="51" y="0" width="1" height="1" fill="#FFFFFF" />
<rect x="52" y="0" width="1" height="1" fill="#FFFFFF" />
<rect x="53" y="0" width="1" height="1" fill="#FFFFFF" />
<rect x="54" y="0" width="1" height="1" fill="#FFFFFF" />
<rect x="55" y="0" width="1" height="1" fill="#FFFFFF" />
<rect x="56" y="0" width="1" height="1" fill="#FFFFFF" />
<rect x="57" y="0" width="1" height="1" fill="#FFFFFF" />
<rect x="58" y="0" width="1" height="1" fill="#FFFFFF" />
<rect x="59" y="0" width="1" height="1" fill="#FFFFFF" />
<rect x="60" y="0" width="1" height="1" fill="#FFFFFF" />
<rect x="61" y="0" width="1" height="1" fill="#FFFFFF" />
<rect x="62" y="0" width="1" height="1" fill="#FFFFFF" />
<rect x="63" y="0" width="1" height="1" fill="#FFFFFF" />
<rect x="0" y="1" width="1" height="1" fill="#FFFFFF" />
<rect x="1" y="1" width="1" height="1" fill="#FFFFFF" />
<rect x="2" y="1" width="1" height="1" fill="#FFFFFF" />
<rect x="3" y="1" width="1" height="1" fill="#FFFFFF" />
<rect x="4" y="1" width="1" height="1" fill="#FFFFFF" />
<rect x="5" y="1" width="1" height="1" fill="#FFFFFF" />
<rect x="6" y="1" width="1" height="1" fill="#FFFFFF" />
<rect x="7" y="1" width="1" height="1" fill="#FFFFFF" />
<rect x="8" y="1" width="1" height="1" fill="#FFFFFF" />
<rect x="9" y="1" width="1" height="1" fill="#FFFFFF" />
<rect x="10" y="1" width="1" height="1" fill="#FFFFFF" />
<rect x="11" y="1" width="1" height="1" fill="#FFFFFF" />
<rect x="12" y="1" width="1" height="1" fill="#FFFFFF" />
<rect x="13" y="1" width="1" height="1" fill="#FFFFFF" />
<rect x="14" y="1" width="1" height="1" fill="#FFFFFF" />
<rect x="15" y="1" width="1" height="1" fill="#FFFFFF" />
<rect x="16" y="1" width="1" height="1" fill="#FFFFFF" />
<rect x="17" y="1" width="1" height="1" fill="#FFFFFF" />
<rect x="18" y="1" width="1" height="1" fill="#FFFFFF" />
<rect x="19" y="1" width="1" height="1" fill="#FFFFFF" />
<rect x="20" y="1" width="1" height="1" fill="#FFFFFF" />
<rect x="21" y="1" width="1" height="1" fill="#FFFFFF" />
<rect x="22" y="1" width="1" height="1" fill="#FFFFFF" />
<rect x="23" y="1" width="1" height="1" fill="#FFFFFF" />
<rect x="24" y="1" width="1" height="1" fill="#FFFFFF" />
<rect x="25" y="1" width="1" height="1" fill="#FFFFFF" />
<rect x="26" y="1" width="1" height="1" fill="#FFFFFF" />
<rect x="27" y="1" width="1" height="1" fill="#FFFFFF" />
<rect x="28" y="1" width="1" height="1" fill="#FFFFFF" />
<rect x="29" y="1" width="1" height="1" fill="#FFFFFF" />
<rect x="30" y="1" width="1" height="1" fill="#FFFFFF" />
<rect x="31" y="1" width="1" height="1" fill="#FFFFFF" />
<rect x="32" y="1" width="1" height="1" fill="#FFFFFF" />
<rect x="33" y="1" width="1" height="1" fill="#FFFFFF" />
<rect x="34" y="1" width="1" height="1" fill="#FFFFFF" />
<rect x="35" y="1" width="1" height="1" fill="#FFFFFF" />
<rect x="36" y="1" width="1" height="1" fill="#FFFFFF" />
<rect x="37" y="1" width="1" height="1" fill="#FFFFFF" />
<rect x="38" y="1" width="1" height="1" fill="#FFFFFF" />
<rect x="39" y="1" width="1" height="1" fill="#FFFFFF" />
<rect x="40" y="1" width="1" height="1" fill="#FFFFFF" />
<rect x="41" y="1" width="1" height="1" fill="#FFFFFF" />
<rect x="42" y="1" width="1" height="1" fill="#FFFFFF" />
<rect x="43" y="1" width="1" height="1" fill="#FFFFFF" />
<rect x="44" y="1" width="1" height="1" fill="#FFFFFF" />
<rect x="45" y="1" width="1" height="1" fill="#FFFFFF" />
<rect x="46" y="1" width="1" height="1" fill="#FFFFFF" />
<rect x="47" y="1" width="1" height="1" fill="#FFFFFF" />
<rect x="48" y="1" width="1" height="1" fill="#FFFFFF" />
<rect x="49" y="1" width="1" height="1" fill="#FFFFFF" />
<rect x="50" y="1" width="1" height="1" fill="#FFFFFF" />
<rect x="51" y="1" width="1" height="1" fill="#FFFFFF" />
<rect x="52" y="1" width="1" height="1" fill="#FFFFFF" />
<rect x="53" y="1" width="1" height="1" fill="#FFFFFF" />
<rect x="54" y="1" width="1" height="1" fill="#FFFFFF" />
<rect x="55" y="1" width="1" height="1" fill="#FFFFFF" />
<rect x="56" y="1" width="1" height="1" fill="#FFFFFF" />
<rect x="57" y="1" width="1" height="1" fill="#FFFFFF" />
<rect x="58" y="1" width="1" height="1" fill="#FFFFFF" />
<rect x="59" y="1" width="1" height="1" fill="#FFFFFF" />
<rect x="60" y="1" width="1" height="1" fill="#FFFFFF" />
<rect x="61" y="1" width="1" height="1" fill="#FFFFFF" />
<rect x="62" y="1" width="1" height="1" fill="#FFFFFF" />
<rect x="63" y="1" width="1" height="1" fill="#FFFFFF" />
<rect x="0" y="2" width="1" height="1" fill="#FFFFFF" />
<rect x="1" y="2" width="1" height="1" fill="#FFFFFF" />
<rect x="6" y="2" width="1" height="1" fill="#FFFFFF" />
<rect x="7" y="2" width="1" height="1" fill="#FFFFFF" />
<rect x="8" y="2" width="1" height="1" fill="#FFFFFF" />
<rect x="9" y="2" width="1" height="1" fill="#FFFFFF" />
<rect x="14" y="2" width="1" height="1" fill="#FFFFFF" />
<rect x="15" y="2" width="1" height="1" fill="#FFFFFF" />
<rect x="16" y="2" width="1" height="1" fill="#FFFFFF" />
<rect x="17" y="2" width="1" height="1" fill="#FFFFFF" />
<rect x="22" y="2" width="1" height="1" fill="#FFFFFF" />
<rect x="23" y="2" width="1" height="1" fill="#FFFFFF" />
<rect x="24" y="2" width="1" height="1" fill="#FFFFFF" />
<rect x="25" y="2" width="1" height="1" fill="#FFFFFF" />
<rect x="30" y="2" width="1" height="1" fill="#FFFFFF" />
<rect x="31" y="2" width="1" height="1" fill="#FFFFFF" />
<rect x="32" y="2" width="1" height="1" fill="#FFFFFF" />
<rect x="33" y="2" width="1" height="1" fill="#FFFFFF" />
<rect x="38" y="2" width="1" height="1" fill="#FFFFFF" />
<rect x="39" y="2" width="1" height="1" fill="#FFFFFF" />
<rect x="40" y="2" width="1" height="1" fill="#FFFFFF" />
<rect x="41" y="2" width="1" height="1" fill="#FFFFFF" />
<rect x="46" y="2" width="1" height="1" fill="#FFFFFF" />
<rect x="47" y="2" width="1" height="1" fill="#FFFFFF" />
<rect x="48" y="2" width="1" height="1" fill="#FFFFFF" />
<rect x="49" y="2" width="1" height="1" fill="#FFFFFF" />
<rect x="54" y="2" width="1" height="1" fill="#FFFFFF" />
<rect x="55" y="2" width="1" height="1" fill="#FFFFFF" />
<rect x="56" y="2" width="1" height="1" fill="#FFFFFF" />
<rect x="57" y="2" width="1" height="1" fill="#FFFFFF" />
<rect x="62" y="2" width="1" height="1" fill="#FFFFFF" />
<rect x="63" y="2" width="1" height="1" fill="#FFFFFF" />
<rect x="0" y="3" width="1" height="1" fill="#FFFFFF" />
<rect x="1" y="3" width="1" height="1" fill="#FFFFFF" />
<rect x="6" y="3" width="1" height="1" fill="#FFFFFF" />
<rect x="7" y="3" width="1" height="1" fill="#FFFFFF" />
<rect x="8" y="3" width="1" height="1" fill="#FFFFFF" />
<rect x="9" y="3" width="1" height="1" fill="#FFFFFF" />
<rect x="14" y="3" width="1" height="1" fill="#FFFFFF" />
<rect x="15" y="3" width="1" height="1" fill="#FFFFFF" />
<rect x="16" y="3" width="1" height="1" fill="#FFFFFF" />
<rect x="17" y="3" width="1" height="1" fill="#FFFFFF" />
<rect x="22" y="3" width="1" height="1" fill="#FFFFFF" />
<rect x="23" y="3" width="1" height="1" fill="#FFFFFF" />
<rect x="24" y="3" width="1" height="1" fill="#FFFFFF" />
<rect x="25" y="3" width="1" height="1" fill="#FFFFFF" />
<rect x="30" y="3" width="1" height="1" fill="#FFFFFF" />
<rect x="31" y="3" width="1" height="1" fill="#FFFFFF" />
<rect x="32" y="3" width="1" height="1" fill="#FFFFFF" />
<rect x="33" y="3" width="1" height="1" fill="#FFFFFF" />
<rect x="38" y="3" width="1" height="1" fill="#FFFFFF" />
<rect x="39" y="3" width="1" height="1" fill="#FFFFFF" />
<rect x="40" y="3" width="1" height="1" fill="#FFFFFF" />
<rect x="41" y="3" width="1" height="1" fill="#FFFFFF" />
<rect x="46" y="3" width="1" height="1" fill="#FFFFFF" />
<rect x="47" y="3" width="1" height="1" fill="#FFFFFF" />
<rect x="48" y="3" width="1" height="1" fill="#FFFFFF" />
<rect x="49" y="3" width="1" height="1" fill="#FFFFFF" />
<rect x="54" y="3" width="1" height="1" fill="#FFFFFF" />
<rect x="55" y="3" width="1" height="1" fill="#FFFFFF" />
<rect x="56" y="3" width="1" height="1" fill="#FFFFFF" />
<rect x="57" y="3" width="1" height="1" fill="#FFFFFF" />
<rect x="62" y="3" width="1" height="1" fill="#FFFFFF" />
<rect x="63" y="3" width="1" height="1" fill="#FFFFFF" />
</svg>