<?xml version="1.0" encoding="UTF-8" ?>
<svg version="1.1" width="64" height="64" xmlns="http://www.w3.org/2000/svg" shape-rendering="crispEdges">
<rect x="7" y="41" width="1" height="1" fill="#3B3D40" />
<rect x="8" y="41" width="1" height="1" fill="#3B3D40" />
<rect x="9" y="41" width="1" height="1" fill="#222426" />
<rect x="10" y="41" width="1" height="1" fill="#000000" />
<rect x="11" y="41" width="1" height="1" fill="#000000" />
<rect x="12" y="41" width="1" height="1" fill="#000000" />
<rect x="13" y="41" width="1" height="1" fill="#000000" />
<rect x="14" y="41" width="1" height="1" fill="#000000" />
<rect x="15" y="41" width="1" height="1" fill="#000000" />
<rect x="16" y="41" width="1" height="1" fill="#000000" />
<rect x="17" y="41" width="1" height="1" fill="#000000" />
<rect x="18" y="41" width="1" height="1" fill="#000000" />
<rect x="19" y="41" width="1" height="1" fill="#000000" />
<rect x="20" y="41" width="1" height="1" fill="#000000" />
<rect x="21" y="41" width="1" height="1" fill="#000000" />
<rect x="22" y="41" width="1" height="1" fill="#000000" />
<rect x="23" y="41" width="1" height="1" fill="#000000" />
<rect x="24" y="41" width="1" height="1" fill="#000000" />
<rect x="25" y="41" width="1" height="1" fill="#000000" />
<rect x="26" y="41" width="1" height="1" fill="#000000" />
<rect x="27" y="41" width="1" height="1" fill="#000000" />
<rect x="28" y="41" width="1" height="1" fill="#000000" />
<rect x="29" y="41" width="1" height="1" fill="#000000" />
<rect x="30" y="41" width="1" height="1" fill="#000000" />
<rect x="31" y="41" width="1" height="1" fill="#000000" />
<rect x="32" y="41" width="1" height="1" fill="#000000" />
<rect x="33" y="41" width="1" height="1" fill="#000000" />
<rect x="34" y="41" width="1" height="1" fill="#000000" />
<rect x="35" y="41" width="1" height="1" fill="#000000" />
<rect x="36" y="41" width="1" height="1" fill="#000000" />
<rect x="37" y="41" width="1" height="1" fill="#000000" />
<rect x="38" y="41" width="1" height="1" fill="#000000" />
<rect x="39" y="41" width="1" height="1" fill="#000000" />
<rect x="40" y="41" width="1" height="1" fill="#000000" />
<rect x="41" y="41" width="1" height="1" fill="#000000" />
<rect x="42" y="41" width="1" height="1" fill="#000000" />
<rect x="43" y="41" width="1" height="1" fill="#000000" />
<rect x="44" y="41" width="1" height="1" fill="#000000" />
<rect x="45" y="41" width="1" height="1" fill="#000000" />
<rect x="46" y="41" width="1" height="1" fill="#000000" />
<rect x="47" y="41" width="1" height="1" fill="#000000" />
<rect x="48" y="41" width="1" height="1" fill="#000000" />
<rect x="49" y="41" width="1" height="1" fill="#000000" />
<rect x="50" y="41" width="1" height="1" fill="#000000" />
<rect x="51" y="41" width="1" height="1" fill="#000000" />
<rect x="52" y="41" width="1" height="1" fill="#000000" />
<rect x="53" y="41" width="1" height="1" fill="#000000" />
<rect x="54" y="41" width="1" height="1" fill="#222426" />
<rect x="55" y="41" width="1" height="1" fill="#3B3D40" />
<rect x="56" y="41" width="1" height="1" fill="#3B3D40" />
<rect x="5" y="42" width="1" height="1" fill="#000000" />
<rect x="6" y="42" width="1" height="1" fill="#3B3D40" />
<rect x="7" y="42" width="1" height="1" fill="#3B3D40" />
<rect x="8" y="42" width="1" height="1" fill="#3B3D40" />
<rect x="9" y="42" width="1" height="1" fill="#222426" />
<rect x="10" y="42" width="1" height="1" fill="#222426" />
<rect x="11" y="42" width="1" height="1" fill="#222426" />
<rect x="12" y="42" width="1" height="1" fill="#222426" />
<rect x="13" y="42" width="1" height="1" fill="#222426" />
<rect x="14" y="42" width="1" height="1" fill="#222426" />
<rect x="15" y="42" width="1" height="1" fill="#222426" />
<rect x="16" y="42" width="1" height="1" fill="#222426" />
<rect x="17" y="42" width="1" height="1" fill="#222426" />
<rect x="18" y="42" width="1" height="1" fill="#222426" />
<rect x="19" y="42" width="1" height="1" fill="#222426" />
<rect x="20" y="42" width="1" height="1" fill="#222426" />
<rect x="21" y="42" width="1" height="1" fill="#222426" />
<rect x="22" y="42" width="1" height="1" fill="#222426" />
<rect x="23" y="42" width="1" height="1" fill="#222426" />
<rect x="24" y="42" width="1" height="1" fill="#222426" />
<rect x="25" y="42" width="1" height="1" fill="#222426" />
<rect x="26" y="42" width="1" height="1" fill="#222426" />
<rect x="27" y="42" width="1" height="1" fill="#222426" />
<rect x="28" y="42" width="1" height="1" fill="#222426" />
<rect x="29" y="42" width="1" height="1" fill="#222426" />
<rect x="30" y="42" width="1" height="1" fill="#222426" />
<rect x="31" y="42" width="1" height="1" fill="#222426" />
<rect x="32" y="42" width="1" height="1" fill="#222426" />
<rect x="33" y="42" width="1" height="1" fill="#222426" />
<rect x="34" y="42" width="1" height="1" fill="#222426" />
<rect x="35" y="42" width="1" height="1" fill="#222426" />
<rect x="36" y="42" width="1" height="1" fill="#222426" />
<rect x="37" y="42" width="1" height="1" fill="#222426" />
<rect x="38" y="42" width="1" height="1" fill="#222426" />
<rect x="39" y="42" width="1" height="1" fill="#222426" />
<rect x="40" y="42" width="1" height="1" fill="#222426" />
<rect x="41" y="42" width="1" height="1" fill="#222426" />
<rect x="42" y="42" width="1" height="1" fill="#222426" />
<rect x="43" y="42" width="1" height="1" fill="#222426" />
<rect x="44" y="42" width="1" height="1" fill="#222426" />
<rect x="45" y="42" width="1" height="1" fill="#222426" />
<rect x="46" y="42" width="1" height="1" fill="#222426" />
<rect x="47" y="42" width="1" height="1" fill="#222426" />
<rect x="48" y="42" width="1" height="1" fill="#222426" />
<rect x="49" y="42" width="1" height="1" fill="#222426" />
<rect x="50" y="42" width="1" height="1" fill="#222426" />
<rect x="51" y="42" width="1" height="1" fill="#222426" />
<rect x="52" y="42" width="1" height="1" fill="#222426" />
<rect x="53" y="42" width="1" height="1" fill="#222426" />
<rect x="54" y="42" width="1" height="1" fill="#222426" />
<rect x="55" y="42" width="1" height="1" fill="#3B3D40" />
<rect x="56" y="42" width="1" height="1" fill="#3B3D40" />
<rect x="57" y="42" width="1" height="1" fill="#3B3D40" />
<rect x="58" y="42" width="1" height="1" fill="#000000" />
<rect x="5" y="43" width="1" height="1" fill="#000000" />
<rect x="6" y="43" width="1" height="1" fill="#3B3D40" />
<rect x="7" y="43" width="1" height="1" fill="#3B3D40" />
<rect x="8" y="43" width="1" height="1" fill="#3B3D40" />
<rect x="9" y="43" width="1" height="1" fill="#222426" />
<rect x="10" y="43" width="1" height="1" fill="#222426" />
<rect x="11" y="43" width="1" height="1" fill="#222426" />
<rect x="12" y="43" width="1" height="1" fill="#222426" />
<rect x="13" y="43" width="1" height="1" fill="#222426" />
<rect x="14" y="43" width="1" height="1" fill="#222426" />
<rect x="15" y="43" width="1" height="1" fill="#222426" />
<rect x="16" y="43" width="1" height="1" fill="#222426" />
<rect x="17" y="43" width="1" height="1" fill="#222426" />
<rect x="18" y="43" width="1" height="1" fill="#222426" />
<rect x="19" y="43" width="1" height="1" fill="#222426" />
<rect x="20" y="43" width="1" height="1" fill="#222426" />
<rect x="21" y="43" width="1" height="1" fill="#222426" />
<rect x="22" y="43" width="1" height="1" fill="#222426" />
<rect x="23" y="43" width="1" height="1" fill="#222426" />
<rect x="24" y="43" width="1" height="1" fill="#222426" />
<rect x="25" y="43" width="1" height="1" fill="#222426" />
<rect x="26" y="43" width="1" height="1" fill="#222426" />
<rect x="27" y="43" width="1" height="1" fill="#222426" />
<rect x="28" y="43" width="1" height="1" fill="#222426" />
<rect x="29" y="43" width="1" height="1" fill="#222426" />
<rect x="30" y="43" width="1" height="1" fill="#222426" />
<rect x="31" y="43" width="1" height="1" fill="#222426" />
<rect x="32" y="43" width="1" height="1" fill="#222426" />
<rect x="33" y="43" width="1" height="1" fill="#222426" />
<rect x="34" y="43" width="1" height="1" fill="#222426" />
<rect x="35" y="43" width="1" height="1" fill="#222426" />
<rect x="36" y="43" width="1" height="1" fill="#222426" />
<rect x="37" y="43" width="1" height="1" fill="#222426" />
<rect x="38" y="43" width="1" height="1" fill="#222426" />
<rect x="39" y="43" width="1" height="1" fill="#222426" />
<rect x="40" y="43" width="1" height="1" fill="#222426" />
<rect x="41" y="43" width="1" height="1" fill="#222426" />
<rect x="42" y="43" width="1" height="1" fill="#222426" />
<rect x="43" y="43" width="1" height="1" fill="#222426" />
<rect x="44" y="43" width="1" height="1" fill="#222426" />
<rect x="45" y="43" width="1" height="1" fill="#222426" />
<rect x="46" y="43" width="1" height="1" fill="#222426" />
<rect x="47" y="43" width="1" height="1" fill="#222426" />
<rect x="48" y="43" width="1" height="1" fill="#222426" />
<rect x="49" y="43" width="1" height="1" fill="#222426" />
<rect x="50" y="43" width="1" height="1" fill="#222426" />
<rect x="51" y="43" width="1" height="1" fill="#222426" />
<rect x="52" y="43" width="1" height="1" fill="#222426" />
<rect x="53" y="43" width="1" height="1" fill="#222426" />
<rect x="54" y="43" width="1" height="1" fill="#222426" />
<rect x="55" y="43" width="1" height="1" fill="#3B3D40" />
<rect x="56" y="43" width="1" height="1" fill="#3B3D40" />
<rect x="57" y="43" width="1" height="1" fill="#3B3D40" />
<rect x="58" y="43" width="1" height="1" fill="#000000" />
<rect x="6" y="44" width="1" height="1" fill="#000000" />
<rect x="7" y="44" width="1" height="1" fill="#000000" />
<rect x="8" y="44" width="1" height="1" fill="#3B3D40" />
<rect x="9" y="44" width="1" height="1" fill="#3B3D40" />
<rect x="10" y="44" width="1" height="1" fill="#3B3D40" />
<rect x="11" y="44" width="1" height="1" fill="#3B3D40" />
<rect x="12" y="44" width="1" height="1" fill="#3B3D40" />
<rect x="13" y="44" width="1" height="1" fill="#3B3D40" />
<rect x="14" y="44" width="1" height="1" fill="#3B3D40" />
<rect x="15" y="44" width="1" height="1" fill="#3B3D40" />
<rect x="16" y="44" width="1" height="1" fill="#3B3D40" />
<rect x="17" y="44" width="1" height="1" fill="#3B3D40" />
<rect x="18" y="44" width="1" height="1" fill="#3B3D40" />
<rect x="19" y="44" width="1" height="1" fill="#3B3D40" />
<rect x="20" y="44" width="1" height="1" fill="#3B3D40" />
<rect x="21" y="44" width="1" height="1" fill="#3B3D40" />
<rect x="22" y="44" width="1" height="1" fill="#3B3D40" />
<rect x="23" y="44" width="1" height="1" fill="#3B3D40" />
<rect x="24" y="44" width="1" height="1" fill="#3B3D40" />
<rect x="25" y="44" width="1" height="1" fill="#3B3D40" />
<rect x="26" y="44" width="1" height="1" fill="#3B3D40" />
<rect x="27" y="44" width="1" height="1" fill="#3B3D40" />
<rect x="28" y="44" width="1" height="1" fill="#3B3D40" />
<rect x="29" y="44" width="1" height="1" fill="#3B3D40" />
<rect x="30" y="44" width="1" height="1" fill="#3B3D40" />
<rect x="31" y="44" width="1" height="1" fill="#3B3D40" />
<rect x="32" y="44" width="1" height="1" fill="#3B3D40" />
<rect x="33" y="44" width="1" height="1" fill="#3B3D40" />
<rect x="34" y="44" width="1" height="1" fill="#3B3D40" />
<rect x="35" y="44" width="1" height="1" fill="#3B3D40" />
<rect x="36" y="44" width="1" height="1" fill="#3B3D40" />
<rect x="37" y="44" width="1" height="1" fill="#3B3D40" />
<rect x="38" y="44" width="1" height="1" fill="#3B3D40" />
<rect x="39" y="44" width="1" height="1" fill="#3B3D40" />
<rect x="40" y="44" width="1" height="1" fill="#3B3D40" />
<rect x="41" y="44" width="1" height="1" fill="#3B3D40" />
<rect x="42" y="44" width="1" height="1" fill="#3B3D40" />
<rect x="43" y="44" width="1" height="1" fill="#3B3D40" />
<rect x="44" y="44" width="1" height="1" fill="#3B3D40" />
<rect x="45" y="44" width="1" height="1" fill="#3B3D40" />
<rect x="46" y="44" width="1" height="1" fill="#3B3D40" />
<rect x="47" y="44" width="1" height="1" fill="#3B3D40" />
<rect x="48" y="44" width="1" height="1" fill="#3B3D40" />
<rect x="49" y="44" width="1" height="1" fill="#3B3D40" />
<rect x="50" y="44" width="1" height="1" fill="#3B3D40" />
<rect x="51" y="44" width="1" height="1" fill="#3B3D40" />
<rect x="52" y="44" width="1" height="1" fill="#3B3D40" />
<rect x="53" y="44" width="1" height="1" fill="#3B3D40" />
<rect x="54" y="44" width="1" height="1" fill="#3B3D40" />
<rect x="55" y="44" width="1" height="1" fill="#3B3D40" />
<rect x="56" y="44" width="1" height="1" fill="#000000" />
<rect x="57" y="44" width="1" height="1" fill="#000000" />
<rect x="8" y="45" width="1" height="1" fill="#000000" />
<rect x="9" y="45" width="1" height="1" fill="#000000" />
<rect x="10" y="45" width="1" height="1" fill="#000000" />
<rect x="11" y="45" width="1" height="1" fill="#000000" />
<rect x="12" y="45" width="1" height="1" fill="#000000" />
<rect x="13" y="45" width="1" height="1" fill="#000000" />
<rect x="14" y="45" width="1" height="1" fill="#000000" />
<rect x="15" y="45" width="1" height="1" fill="#000000" />
<rect x="16" y="45" width="1" height="1" fill="#000000" />
<rect x="17" y="45" width="1" height="1" fill="#000000" />
<rect x="18" y="45" width="1" height="1" fill="#000000" />
<rect x="19" y="45" width="1" height="1" fill="#000000" />
<rect x="20" y="45" width="1" height="1" fill="#000000" />
<rect x="21" y="45" width="1" height="1" fill="#000000" />
<rect x="22" y="45" width="1" height="1" fill="#000000" />
<rect x="23" y="45" width="1" height="1" fill="#000000" />
<rect x="24" y="45" width="1" height="1" fill="#000000" />
<rect x="25" y="45" width="1" height="1" fill="#000000" />
<rect x="26" y="45" width="1" height="1" fill="#000000" />
<rect x="27" y="45" width="1" height="1" fill="#000000" />
<rect x="28" y="45" width="1" height="1" fill="#000000" />
<rect x="29" y="45" width="1" height="1" fill="#000000" />
<rect x="30" y="45" width="1" height="1" fill="#000000" />
<rect x="31" y="45" width="1" height="1" fill="#000000" />
<rect x="32" y="45" width="1" height="1" fill="#000000" />
<rect x="33" y="45" width="1" height="1" fill="#000000" />
<rect x="34" y="45" width="1" height="1" fill="#000000" />
<rect x="35" y="45" width="1" height="1" fill="#000000" />
<rect x="36" y="45" width="1" height="1" fill="#000000" />
<rect x="37" y="45" width="1" height="1" fill="#000000" />
<rect x="38" y="45" width="1" height="1" fill="#000000" />
<rect x="39" y="45" width="1" height="1" fill="#000000" />
<rect x="40" y="45" width="1" height="1" fill="#000000" />
<rect x="41" y="45" width="1" height="1" fill="#000000" />
<rect x="42" y="45" width="1" height="1" fill="#000000" />
<rect x="43" y="45" width="1" height="1" fill="#000000" />
<rect x="44" y="45" width="1" height="1" fill="#000000" />
<rect x="45" y="45" width="1" height="1" fill="#000000" />
<rect x="46" y="45" width="1" height="1" fill="#000000" />
<rect x="47" y="45" width="1" height="1" fill="#000000" />
<rect x="48" y="45" width="1" height="1" fill="#000000" />
<rect x="49" y="45" width="1" height="1" fill="#000000" />
<rect x="50" y="45" width="1" height="1" fill="#000000" />
<rect x="51" y="45" width="1" height="1" fill="#000000" />
<rect x="52" y="45" width="1" height="1" fill="#000000" />
<rect x="53" y="45" width="1" height="1" fill="#000000" />
<rect x="54" y="45" width="1" height="1" fill="#000000" />
<rect x="55" y="45" width="1" height="1" fill="#000000" />
</svg>