<?xml version="1.0" encoding="UTF-8" ?>
<svg version="1.1" width="64" height="42" xmlns="http://www.w3.org/2000/svg" shape-rendering="crispEdges">
<rect x="6" y="37" width="1" height="1" fill="#000000" />
<rect x="7" y="37" width="1" height="1" fill="#000000" />
<rect x="8" y="37" width="1" height="1" fill="#000000" />
<rect x="9" y="37" width="1" height="1" fill="#000000" />
<rect x="10" y="37" width="1" height="1" fill="#000000" />
<rect x="11" y="37" width="1" height="1" fill="#000000" />
<rect x="12" y="37" width="1" height="1" fill="#000000" />
<rect x="13" y="37" width="1" height="1" fill="#000000" />
<rect x="14" y="37" width="1" height="1" fill="#000000" />
<rect x="15" y="37" width="1" height="1" fill="#000000" />
<rect x="16" y="37" width="1" height="1" fill="#000000" />
<rect x="17" y="37" width="1" height="1" fill="#000000" />
<rect x="18" y="37" width="1" height="1" fill="#000000" />
<rect x="19" y="37" width="1" height="1" fill="#000000" />
<rect x="20" y="37" width="1" height="1" fill="#000000" />
<rect x="21" y="37" width="1" height="1" fill="#000000" />
<rect x="22" y="37" width="1" height="1" fill="#000000" />
<rect x="23" y="37" width="1" height="1" fill="#000000" />
<rect x="24" y="37" width="1" height="1" fill="#000000" />
<rect x="25" y="37" width="1" height="1" fill="#000000" />
<rect x="26" y="37" width="1" height="1" fill="#000000" />
<rect x="27" y="37" width="1" height="1" fill="#000000" />
<rect x="28" y="37" width="1" height="1" fill="#000000" />
<rect x="29" y="37" width="1" height="1" fill="#000000" />
<rect x="30" y="37" width="1" height="1" fill="#000000" />
<rect x="31" y="37" width="1" height="1" fill="#000000" />
<rect x="32" y="37" width="1" height="1" fill="#000000" />
<rect x="33" y="37" width="1" height="1" fill="#000000" />
<rect x="34" y="37" width="1" height="1" fill="#000000" />
<rect x="35" y="37" width="1" height="1" fill="#000000" />
<rect x="36" y="37" width="1" height="1" fill="#000000" />
<rect x="37" y="37" width="1" height="1" fill="#000000" />
<rect x="38" y="37" width="1" height="1" fill="#000000" />
<rect x="39" y="37" width="1" height="1" fill="#000000" />
<rect x="40" y="37" width="1" height="1" fill="#000000" />
<rect x="41" y="37" width="1" height="1" fill="#000000" />
<rect x="42" y="37" width="1" height="1" fill="#000000" />
<rect x="43" y="37" width="1" height="1" fill="#000000" />
<rect x="44" y="37" width="1" height="1" fill="#000000" />
<rect x="45" y="37" width="1" height="1" fill="#000000" />
<rect x="46" y="37" width="1" height="1" fill="#000000" />
<rect x="47" y="37" width="1" height="1" fill="#000000" />
<rect x="48" y="37" width="1" height="1" fill="#000000" />
<rect x="49" y="37" width="1" height="1" fill="#000000" />
<rect x="50" y="37" width="1" height="1" fill="#000000" />
<rect x="51" y="37" width="1" height="1" fill="#000000" />
<rect x="52" y="37" width="1" height="1" fill="#000000" />
<rect x="53" y="37" width="1" height="1" fill="#000000" />
<rect x="54" y="37" width="1" height="1" fill="#000000" />
<rect x="55" y="37" width="1" height="1" fill="#000000" />
<rect x="56" y="37" width="1" height="1" fill="#000000" />
<rect x="57" y="37" width="1" height="1" fill="#000000" />
<rect x="5" y="38" width="1" height="1" fill="#000000" />
<rect x="6" y="38" width="1" height="1" fill="#777A80" />
<rect x="7" y="38" width="1" height="1" fill="#777A80" />
<rect x="8" y="38" width="1" height="1" fill="#777A80" />
<rect x="9" y="38" width="1" height="1" fill="#777A80" />
<rect x="10" y="38" width="1" height="1" fill="#777A80" />
<rect x="11" y="38" width="1" height="1" fill="#777A80" />
<rect x="12" y="38" width="1" height="1" fill="#777A80" />
<rect x="13" y="38" width="1" height="1" fill="#777A80" />
<rect x="14" y="38" width="1" height="1" fill="#777A80" />
<rect x="15" y="38" width="1" height="1" fill="#777A80" />
<rect x="16" y="38" width="1" height="1" fill="#777A80" />
<rect x="17" y="38" width="1" height="1" fill="#777A80" />
<rect x="18" y="38" width="1" height="1" fill="#777A80" />
<rect x="19" y="38" width="1" height="1" fill="#777A80" />
<rect x="20" y="38" width="1" height="1" fill="#777A80" />
<rect x="21" y="38" width="1" height="1" fill="#777A80" />
<rect x="22" y="38" width="1" height="1" fill="#777A80" />
<rect x="23" y="38" width="1" height="1" fill="#777A80" />
<rect x="24" y="38" width="1" height="1" fill="#777A80" />
<rect x="25" y="38" width="1" height="1" fill="#777A80" />
<rect x="26" y="38" width="1" height="1" fill="#777A80" />
<rect x="27" y="38" width="1" height="1" fill="#777A80" />
<rect x="28" y="38" width="1" height="1" fill="#777A80" />
<rect x="29" y="38" width="1" height="1" fill="#777A80" />
<rect x="30" y="38" width="1" height="1" fill="#777A80" />
<rect x="31" y="38" width="1" height="1" fill="#777A80" />
<rect x="32" y="38" width="1" height="1" fill="#777A80" />
<rect x="33" y="38" width="1" height="1" fill="#777A80" />
<rect x="34" y="38" width="1" height="1" fill="#777A80" />
<rect x="35" y="38" width="1" height="1" fill="#777A80" />
<rect x="36" y="38" width="1" height="1" fill="#777A80" />
<rect x="37" y="38" width="1" height="1" fill="#777A80" />
<rect x="38" y="38" width="1" height="1" fill="#777A80" />
<rect x="39" y="38" width="1" height="1" fill="#777A80" />
<rect x="40" y="38" width="1" height="1" fill="#777A80" />
<rect x="41" y="38" width="1" height="1" fill="#777A80" />
<rect x="42" y="38" width="1" height="1" fill="#777A80" />
<rect x="43" y="38" width="1" height="1" fill="#777A80" />
<rect x="44" y="38" width="1" height="1" fill="#777A80" />
<rect x="45" y="38" width="1" height="1" fill="#777A80" />
<rect x="46" y="38" width="1" height="1" fill="#777A80" />
<rect x="47" y="38" width="1" height="1" fill="#777A80" />
<rect x="48" y="38" width="1" height="1" fill="#777A80" />
<rect x="49" y="38" width="1" height="1" fill="#777A80" />
<rect x="50" y="38" width="1" height="1" fill="#777A80" />
<rect x="51" y="38" width="1" height="1" fill="#777A80" />
<rect x="52" y="38" width="1" height="1" fill="#777A80" />
<rect x="53" y="38" width="1" height="1" fill="#777A80" />
<rect x="54" y="38" width="1" height="1" fill="#777A80" />
<rect x="55" y="38" width="1" height="1" fill="#777A80" />
<rect x="56" y="38" width="1" height="1" fill="#777A80" />
<rect x="57" y="38" width="1" height="1" fill="#777A80" />
<rect x="58" y="38" width="1" height="1" fill="#000000" />
<rect x="4" y="39" width="1" height="1" fill="#000000" />
<rect x="5" y="39" width="1" height="1" fill="#777A80" />
<rect x="6" y="39" width="1" height="1" fill="#777A80" />
<rect x="7" y="39" width="1" height="1" fill="#777A80" />
<rect x="8" y="39" width="1" height="1" fill="#777A80" />
<rect x="9" y="39" width="1" height="1" fill="#777A80" />
<rect x="10" y="39" width="1" height="1" fill="#777A80" />
<rect x="11" y="39" width="1" height="1" fill="#777A80" />
<rect x="12" y="39" width="1" height="1" fill="#777A80" />
<rect x="13" y="39" width="1" height="1" fill="#777A80" />
<rect x="14" y="39" width="1" height="1" fill="#777A80" />
<rect x="15" y="39" width="1" height="1" fill="#777A80" />
<rect x="16" y="39" width="1" height="1" fill="#777A80" />
<rect x="17" y="39" width="1" height="1" fill="#777A80" />
<rect x="18" y="39" width="1" height="1" fill="#777A80" />
<rect x="19" y="39" width="1" height="1" fill="#777A80" />
<rect x="20" y="39" width="1" height="1" fill="#777A80" />
<rect x="21" y="39" width="1" height="1" fill="#777A80" />
<rect x="22" y="39" width="1" height="1" fill="#777A80" />
<rect x="23" y="39" width="1" height="1" fill="#777A80" />
<rect x="24" y="39" width="1" height="1" fill="#777A80" />
<rect x="25" y="39" width="1" height="1" fill="#777A80" />
<rect x="26" y="39" width="1" height="1" fill="#777A80" />
<rect x="27" y="39" width="1" height="1" fill="#777A80" />
<rect x="28" y="39" width="1" height="1" fill="#777A80" />
<rect x="29" y="39" width="1" height="1" fill="#777A80" />
<rect x="30" y="39" width="1" height="1" fill="#777A80" />
<rect x="31" y="39" width="1" height="1" fill="#777A80" />
<rect x="32" y="39" width="1" height="1" fill="#777A80" />
<rect x="33" y="39" width="1" height="1" fill="#777A80" />
<rect x="34" y="39" width="1" height="1" fill="#777A80" />
<rect x="35" y="39" width="1" height="1" fill="#777A80" />
<rect x="36" y="39" width="1" height="1" fill="#777A80" />
<rect x="37" y="39" width="1" height="1" fill="#777A80" />
<rect x="38" y="39" width="1" height="1" fill="#777A80" />
<rect x="39" y="39" width="1" height="1" fill="#777A80" />
<rect x="40" y="39" width="1" height="1" fill="#777A80" />
<rect x="41" y="39" width="1" height="1" fill="#777A80" />
<rect x="42" y="39" width="1" height="1" fill="#777A80" />
<rect x="43" y="39" width="1" height="1" fill="#777A80" />
<rect x="44" y="39" width="1" height="1" fill="#777A80" />
<rect x="45" y="39" width="1" height="1" fill="#777A80" />
<rect x="46" y="39" width="1" height="1" fill="#777A80" />
<rect x="47" y="39" width="1" height="1" fill="#777A80" />
<rect x="48" y="39" width="1" height="1" fill="#777A80" />
<rect x="49" y="39" width="1" height="1" fill="#777A80" />
<rect x="50" y="39" width="1" height="1" fill="#777A80" />
<rect x="51" y="39" width="1" height="1" fill="#777A80" />
<rect x="52" y="39" width="1" height="1" fill="#777A80" />
<rect x="53" y="39" width="1" height="1" fill="#777A80" />
<rect x="54" y="39" width="1" height="1" fill="#777A80" />
<rect x="55" y="39" width="1" height="1" fill="#777A80" />
<rect x="56" y="39" width="1" height="1" fill="#777A80" />
<rect x="57" y="39" width="1" height="1" fill="#777A80" />
<rect x="58" y="39" width="1" height="1" fill="#777A80" />
<rect x="59" y="39" width="1" height="1" fill="#000000" />
<rect x="4" y="40" width="1" height="1" fill="#000000" />
<rect x="5" y="40" width="1" height="1" fill="#777A80" />
<rect x="6" y="40" width="1" height="1" fill="#777A80" />
<rect x="7" y="40" width="1" height="1" fill="#777A80" />
<rect x="8" y="40" width="1" height="1" fill="#777A80" />
<rect x="9" y="40" width="1" height="1" fill="#777A80" />
<rect x="10" y="40" width="1" height="1" fill="#777A80" />
<rect x="11" y="40" width="1" height="1" fill="#777A80" />
<rect x="12" y="40" width="1" height="1" fill="#777A80" />
<rect x="13" y="40" width="1" height="1" fill="#777A80" />
<rect x="14" y="40" width="1" height="1" fill="#777A80" />
<rect x="15" y="40" width="1" height="1" fill="#777A80" />
<rect x="16" y="40" width="1" height="1" fill="#777A80" />
<rect x="17" y="40" width="1" height="1" fill="#777A80" />
<rect x="18" y="40" width="1" height="1" fill="#777A80" />
<rect x="19" y="40" width="1" height="1" fill="#777A80" />
<rect x="20" y="40" width="1" height="1" fill="#777A80" />
<rect x="21" y="40" width="1" height="1" fill="#777A80" />
<rect x="22" y="40" width="1" height="1" fill="#777A80" />
<rect x="23" y="40" width="1" height="1" fill="#777A80" />
<rect x="24" y="40" width="1" height="1" fill="#777A80" />
<rect x="25" y="40" width="1" height="1" fill="#777A80" />
<rect x="26" y="40" width="1" height="1" fill="#777A80" />
<rect x="27" y="40" width="1" height="1" fill="#777A80" />
<rect x="28" y="40" width="1" height="1" fill="#777A80" />
<rect x="29" y="40" width="1" height="1" fill="#777A80" />
<rect x="30" y="40" width="1" height="1" fill="#777A80" />
<rect x="31" y="40" width="1" height="1" fill="#777A80" />
<rect x="32" y="40" width="1" height="1" fill="#777A80" />
<rect x="33" y="40" width="1" height="1" fill="#777A80" />
<rect x="34" y="40" width="1" height="1" fill="#777A80" />
<rect x="35" y="40" width="1" height="1" fill="#777A80" />
<rect x="36" y="40" width="1" height="1" fill="#777A80" />
<rect x="37" y="40" width="1" height="1" fill="#777A80" />
<rect x="38" y="40" width="1" height="1" fill="#777A80" />
<rect x="39" y="40" width="1" height="1" fill="#777A80" />
<rect x="40" y="40" width="1" height="1" fill="#777A80" />
<rect x="41" y="40" width="1" height="1" fill="#777A80" />
<rect x="42" y="40" width="1" height="1" fill="#777A80" />
<rect x="43" y="40" width="1" height="1" fill="#777A80" />
<rect x="44" y="40" width="1" height="1" fill="#777A80" />
<rect x="45" y="40" width="1" height="1" fill="#777A80" />
<rect x="46" y="40" width="1" height="1" fill="#777A80" />
<rect x="47" y="40" width="1" height="1" fill="#777A80" />
<rect x="48" y="40" width="1" height="1" fill="#777A80" />
<rect x="49" y="40" width="1" height="1" fill="#777A80" />
<rect x="50" y="40" width="1" height="1" fill="#777A80" />
<rect x="51" y="40" width="1" height="1" fill="#777A80" />
<rect x="52" y="40" width="1" height="1" fill="#777A80" />
<rect x="53" y="40" width="1" height="1" fill="#777A80" />
<rect x="54" y="40" width="1" height="1" fill="#777A80" />
<rect x="55" y="40" width="1" height="1" fill="#777A80" />
<rect x="56" y="40" width="1" height="1" fill="#777A80" />
<rect x="57" y="40" width="1" height="1" fill="#777A80" />
<rect x="58" y="40" width="1" height="1" fill="#777A80" />
<rect x="59" y="40" width="1" height="1" fill="#000000" />
<rect x="4" y="41" width="1" height="1" fill="#000000" />
<rect x="5" y="41" width="1" height="1" fill="#777A80" />
<rect x="6" y="41" width="1" height="1" fill="#777A80" />
<rect x="57" y="41" width="1" height="1" fill="#777A80" />
<rect x="58" y="41" width="1" height="1" fill="#777A80" />
<rect x="59" y="41" width="1" height="1" fill="#000000" />
</svg>