<?xml version="1.0" encoding="UTF-8" ?>
<svg version="1.1" width="64" height="64" xmlns="http://www.w3.org/2000/svg" shape-rendering="crispEdges">
<rect x="29" y="5" width="1" height="1" fill="#000000" />
<rect x="30" y="5" width="1" height="1" fill="#000000" />
<rect x="31" y="5" width="1" height="1" fill="#000000" />
<rect x="32" y="5" width="1" height="1" fill="#000000" />
<rect x="33" y="5" width="1" height="1" fill="#000000" />
<rect x="34" y="5" width="1" height="1" fill="#000000" />
<rect x="27" y="6" width="1" height="1" fill="#000000" />
<rect x="28" y="6" width="1" height="1" fill="#000000" />
<rect x="29" y="6" width="1" height="1" fill="#AC3232" />
<rect x="30" y="6" width="1" height="1" fill="#AC3232" />
<rect x="31" y="6" width="1" height="1" fill="#AC3232" />
<rect x="32" y="6" width="1" height="1" fill="#AC3232" />
<rect x="33" y="6" width="1" height="1" fill="#AC3232" />
<rect x="34" y="6" width="1" height="1" fill="#AC3232" />
<rect x="35" y="6" width="1" height="1" fill="#000000" />
<rect x="36" y="6" width="1" height="1" fill="#000000" />
<rect x="26" y="7" width="1" height="1" fill="#000000" />
<rect x="27" y="7" width="1" height="1" fill="#AC3232" />
<rect x="28" y="7" width="1" height="1" fill="#AC3232" />
<rect x="29" y="7" width="1" height="1" fill="#AC3232" />
<rect x="30" y="7" width="1" height="1" fill="#AC3232" />
<rect x="31" y="7" width="1" height="1" fill="#AC3232" />
<rect x="32" y="7" width="1" height="1" fill="#AC3232" />
<rect x="33" y="7" width="1" height="1" fill="#AC3232" />
<rect x="34" y="7" width="1" height="1" fill="#AC3232" />
<rect x="35" y="7" width="1" height="1" fill="#AC3232" />
<rect x="36" y="7" width="1" height="1" fill="#AC3232" />
<rect x="37" y="7" width="1" height="1" fill="#000000" />
<rect x="25" y="8" width="1" height="1" fill="#000000" />
<rect x="26" y="8" width="1" height="1" fill="#AC3232" />
<rect x="27" y="8" width="1" height="1" fill="#AC3232" />
<rect x="28" y="8" width="1" height="1" fill="#AC3232" />
<rect x="29" y="8" width="1" height="1" fill="#AC3232" />
<rect x="30" y="8" width="1" height="1" fill="#AC3232" />
<rect x="31" y="8" width="1" height="1" fill="#AC3232" />
<rect x="32" y="8" width="1" height="1" fill="#AC3232" />
<rect x="33" y="8" width="1" height="1" fill="#AC3232" />
<rect x="34" y="8" width="1" height="1" fill="#AC3232" />
<rect x="35" y="8" width="1" height="1" fill="#AC3232" />
<rect x="36" y="8" width="1" height="1" fill="#AC3232" />
<rect x="37" y="8" width="1" height="1" fill="#AC3232" />
<rect x="38" y="8" width="1" height="1" fill="#000000" />
<rect x="24" y="9" width="1" height="1" fill="#000000" />
<rect x="25" y="9" width="1" height="1" fill="#AC3232" />
<rect x="26" y="9" width="1" height="1" fill="#AC3232" />
<rect x="27" y="9" width="1" height="1" fill="#AC3232" />
<rect x="28" y="9" width="1" height="1" fill="#AC3232" />
<rect x="29" y="9" width="1" height="1" fill="#AC3232" />
<rect x="30" y="9" width="1" height="1" fill="#AC3232" />
<rect x="31" y="9" width="1" height="1" fill="#AC3232" />
<rect x="32" y="9" width="1" height="1" fill="#AC3232" />
<rect x="33" y="9" width="1" height="1" fill="#AC3232" />
<rect x="34" y="9" width="1" height="1" fill="#AC3232" />
<rect x="35" y="9" width="1" height="1" fill="#AC3232" />
<rect x="36" y="9" width="1" height="1" fill="#AC3232" />
<rect x="37" y="9" width="1" height="1" fill="#AC3232" />
<rect x="38" y="9" width="1" height="1" fill="#AC3232" />
<rect x="39" y="9" width="1" height="1" fill="#000000" />
<rect x="23" y="10" width="1" height="1" fill="#000000" />
<rect x="24" y="10" width="1" height="1" fill="#AC3232" />
<rect x="25" y="10" width="1" height="1" fill="#AC3232" />
<rect x="26" y="10" width="1" height="1" fill="#AC3232" />
<rect x="27" y="10" width="1" height="1" fill="#AC3232" />
<rect x="28" y="10" width="1" height="1" fill="#AC3232" />
<rect x="29" y="10" width="1" height="1" fill="#AC3232" />
<rect x="30" y="10" width="1" height="1" fill="#FFFFFF" />
<rect x="31" y="10" width="1" height="1" fill="#FFFFFF" />
<rect x="32" y="10" width="1" height="1" fill="#FFFFFF" />
<rect x="33" y="10" width="1" height="1" fill="#FFFFFF" />
<rect x="34" y="10" width="1" height="1" fill="#AC3232" />
<rect x="35" y="10" width="1" height="1" fill="#AC3232" />
<rect x="36" y="10" width="1" height="1" fill="#AC3232" />
<rect x="37" y="10" width="1" height="1" fill="#AC3232" />
<rect x="38" y="10" width="1" height="1" fill="#AC3232" />
<rect x="39" y="10" width="1" height="1" fill="#AC3232" />
<rect x="40" y="10" width="1" height="1" fill="#000000" />
<rect x="22" y="11" width="1" height="1" fill="#000000" />
<rect x="23" y="11" width="1" height="1" fill="#AC3232" />
<rect x="24" y="11" width="1" height="1" fill="#AC3232" />
<rect x="25" y="11" width="1" height="1" fill="#AC3232" />
<rect x="26" y="11" width="1" height="1" fill="#AC3232" />
<rect x="27" y="11" width="1" height="1" fill="#AC3232" />
<rect x="28" y="11" width="1" height="1" fill="#FFFFFF" />
<rect x="29" y="11" width="1" height="1" fill="#FFFFFF" />
<rect x="30" y="11" width="1" height="1" fill="#FFFFFF" />
<rect x="31" y="11" width="1" height="1" fill="#FFFFFF" />
<rect x="32" y="11" width="1" height="1" fill="#FFFFFF" />
<rect x="33" y="11" width="1" height="1" fill="#FFFFFF" />
<rect x="34" y="11" width="1" height="1" fill="#FFFFFF" />
<rect x="35" y="11" width="1" height="1" fill="#FFFFFF" />
<rect x="36" y="11" width="1" height="1" fill="#AC3232" />
<rect x="37" y="11" width="1" height="1" fill="#AC3232" />
<rect x="38" y="11" width="1" height="1" fill="#AC3232" />
<rect x="39" y="11" width="1" height="1" fill="#AC3232" />
<rect x="40" y="11" width="1" height="1" fill="#AC3232" />
<rect x="41" y="11" width="1" height="1" fill="#000000" />
<rect x="22" y="12" width="1" height="1" fill="#000000" />
<rect x="23" y="12" width="1" height="1" fill="#AC3232" />
<rect x="24" y="12" width="1" height="1" fill="#AC3232" />
<rect x="25" y="12" width="1" height="1" fill="#AC3232" />
<rect x="26" y="12" width="1" height="1" fill="#AC3232" />
<rect x="27" y="12" width="1" height="1" fill="#FFFFFF" />
<rect x="28" y="12" width="1" height="1" fill="#FFFFFF" />
<rect x="29" y="12" width="1" height="1" fill="#FFFFFF" />
<rect x="30" y="12" width="1" height="1" fill="#FFFFFF" />
<rect x="31" y="12" width="1" height="1" fill="#FFFFFF" />
<rect x="32" y="12" width="1" height="1" fill="#FFFFFF" />
<rect x="33" y="12" width="1" height="1" fill="#FFFFFF" />
<rect x="34" y="12" width="1" height="1" fill="#FFFFFF" />
<rect x="35" y="12" width="1" height="1" fill="#FFFFFF" />
<rect x="36" y="12" width="1" height="1" fill="#FFFFFF" />
<rect x="37" y="12" width="1" height="1" fill="#AC3232" />
<rect x="38" y="12" width="1" height="1" fill="#AC3232" />
<rect x="39" y="12" width="1" height="1" fill="#AC3232" />
<rect x="40" y="12" width="1" height="1" fill="#AC3232" />
<rect x="41" y="12" width="1" height="1" fill="#000000" />
<rect x="21" y="13" width="1" height="1" fill="#000000" />
<rect x="22" y="13" width="1" height="1" fill="#AC3232" />
<rect x="23" y="13" width="1" height="1" fill="#AC3232" />
<rect x="24" y="13" width="1" height="1" fill="#AC3232" />
<rect x="25" y="13" width="1" height="1" fill="#AC3232" />
<rect x="26" y="13" width="1" height="1" fill="#AC3232" />
<rect x="27" y="13" width="1" height="1" fill="#FFFFFF" />
<rect x="28" y="13" width="1" height="1" fill="#FFFFFF" />
<rect x="29" y="13" width="1" height="1" fill="#FFFFFF" />
<rect x="30" y="13" width="1" height="1" fill="#FFFFFF" />
<rect x="31" y="13" width="1" height="1" fill="#FFFFFF" />
<rect x="32" y="13" width="1" height="1" fill="#FFFFFF" />
<rect x="33" y="13" width="1" height="1" fill="#FFFFFF" />
<rect x="34" y="13" width="1" height="1" fill="#FFFFFF" />
<rect x="35" y="13" width="1" height="1" fill="#FFFFFF" />
<rect x="36" y="13" width="1" height="1" fill="#FFFFFF" />
<rect x="37" y="13" width="1" height="1" fill="#AC3232" />
<rect x="38" y="13" width="1" height="1" fill="#AC3232" />
<rect x="39" y="13" width="1" height="1" fill="#AC3232" />
<rect x="40" y="13" width="1" height="1" fill="#AC3232" />
<rect x="41" y="13" width="1" height="1" fill="#AC3232" />
<rect x="42" y="13" width="1" height="1" fill="#000000" />
<rect x="21" y="14" width="1" height="1" fill="#000000" />
<rect x="22" y="14" width="1" height="1" fill="#AC3232" />
<rect x="23" y="14" width="1" height="1" fill="#AC3232" />
<rect x="24" y="14" width="1" height="1" fill="#AC3232" />
<rect x="25" y="14" width="1" height="1" fill="#AC3232" />
<rect x="26" y="14" width="1" height="1" fill="#FFFFFF" />
<rect x="27" y="14" width="1" height="1" fill="#FFFFFF" />
<rect x="28" y="14" width="1" height="1" fill="#FFFFFF" />
<rect x="29" y="14" width="1" height="1" fill="#FFFFFF" />
<rect x="30" y="14" width="1" height="1" fill="#FFFFFF" />
<rect x="31" y="14" width="1" height="1" fill="#FFFFFF" />
<rect x="32" y="14" width="1" height="1" fill="#FFFFFF" />
<rect x="33" y="14" width="1" height="1" fill="#FFFFFF" />
<rect x="34" y="14" width="1" height="1" fill="#FFFFFF" />
<rect x="35" y="14" width="1" height="1" fill="#FFFFFF" />
<rect x="36" y="14" width="1" height="1" fill="#FFFFFF" />
<rect x="37" y="14" width="1" height="1" fill="#FFFFFF" />
<rect x="38" y="14" width="1" height="1" fill="#AC3232" />
<rect x="39" y="14" width="1" height="1" fill="#AC3232" />
<rect x="40" y="14" width="1" height="1" fill="#AC3232" />
<rect x="41" y="14" width="1" height="1" fill="#AC3232" />
<rect x="42" y="14" width="1" height="1" fill="#000000" />
<rect x="21" y="15" width="1" height="1" fill="#000000" />
<rect x="22" y="15" width="1" height="1" fill="#AC3232" />
<rect x="23" y="15" width="1" height="1" fill="#AC3232" />
<rect x="24" y="15" width="1" height="1" fill="#AC3232" />
<rect x="25" y="15" width="1" height="1" fill="#AC3232" />
<rect x="26" y="15" width="1" height="1" fill="#FFFFFF" />
<rect x="27" y="15" width="1" height="1" fill="#FFFFFF" />
<rect x="28" y="15" width="1" height="1" fill="#FFFFFF" />
<rect x="29" y="15" width="1" height="1" fill="#FFFFFF" />
<rect x="30" y="15" width="1" height="1" fill="#FFFFFF" />
<rect x="31" y="15" width="1" height="1" fill="#FFFFFF" />
<rect x="32" y="15" width="1" height="1" fill="#FFFFFF" />
<rect x="33" y="15" width="1" height="1" fill="#FFFFFF" />
<rect x="34" y="15" width="1" height="1" fill="#FFFFFF" />
<rect x="35" y="15" width="1" height="1" fill="#FFFFFF" />
<rect x="36" y="15" width="1" height="1" fill="#FFFFFF" />
<rect x="37" y="15" width="1" height="1" fill="#FFFFFF" />
<rect x="38" y="15" width="1" height="1" fill="#AC3232" />
<rect x="39" y="15" width="1" height="1" fill="#AC3232" />
<rect x="40" y="15" width="1" height="1" fill="#AC3232" />
<rect x="41" y="15" width="1" height="1" fill="#AC3232" />
<rect x="42" y="15" width="1" height="1" fill="#000000" />
<rect x="21" y="16" width="1" height="1" fill="#000000" />
<rect x="22" y="16" width="1" height="1" fill="#AC3232" />
<rect x="23" y="16" width="1" height="1" fill="#AC3232" />
<rect x="24" y="16" width="1" height="1" fill="#AC3232" />
<rect x="25" y="16" width="1" height="1" fill="#AC3232" />
<rect x="26" y="16" width="1" height="1" fill="#E6E6E6" />
<rect x="27" y="16" width="1" height="1" fill="#FFFFFF" />
<rect x="28" y="16" width="1" height="1" fill="#FFFFFF" />
<rect x="29" y="16" width="1" height="1" fill="#FFFFFF" />
<rect x="30" y="16" width="1" height="1" fill="#FFFFFF" />
<rect x="31" y="16" width="1" height="1" fill="#FFFFFF" />
<rect x="32" y="16" width="1" height="1" fill="#FFFFFF" />
<rect x="33" y="16" width="1" height="1" fill="#FFFFFF" />
<rect x="34" y="16" width="1" height="1" fill="#FFFFFF" />
<rect x="35" y="16" width="1" height="1" fill="#FFFFFF" />
<rect x="36" y="16" width="1" height="1" fill="#FFFFFF" />
<rect x="37" y="16" width="1" height="1" fill="#E6E6E6" />
<rect x="38" y="16" width="1" height="1" fill="#AC3232" />
<rect x="39" y="16" width="1" height="1" fill="#AC3232" />
<rect x="40" y="16" width="1" height="1" fill="#AC3232" />
<rect x="41" y="16" width="1" height="1" fill="#AC3232" />
<rect x="42" y="16" width="1" height="1" fill="#000000" />
<rect x="21" y="17" width="1" height="1" fill="#000000" />
<rect x="22" y="17" width="1" height="1" fill="#AC3232" />
<rect x="23" y="17" width="1" height="1" fill="#AC3232" />
<rect x="24" y="17" width="1" height="1" fill="#AC3232" />
<rect x="25" y="17" width="1" height="1" fill="#AC3232" />
<rect x="26" y="17" width="1" height="1" fill="#E6E6E6" />
<rect x="27" y="17" width="1" height="1" fill="#E6E6E6" />
<rect x="28" y="17" width="1" height="1" fill="#FFFFFF" />
<rect x="29" y="17" width="1" height="1" fill="#FFFFFF" />
<rect x="30" y="17" width="1" height="1" fill="#FFFFFF" />
<rect x="31" y="17" width="1" height="1" fill="#FFFFFF" />
<rect x="32" y="17" width="1" height="1" fill="#FFFFFF" />
<rect x="33" y="17" width="1" height="1" fill="#FFFFFF" />
<rect x="34" y="17" width="1" height="1" fill="#FFFFFF" />
<rect x="35" y="17" width="1" height="1" fill="#FFFFFF" />
<rect x="36" y="17" width="1" height="1" fill="#E6E6E6" />
<rect x="37" y="17" width="1" height="1" fill="#E6E6E6" />
<rect x="38" y="17" width="1" height="1" fill="#AC3232" />
<rect x="39" y="17" width="1" height="1" fill="#AC3232" />
<rect x="40" y="17" width="1" height="1" fill="#AC3232" />
<rect x="41" y="17" width="1" height="1" fill="#AC3232" />
<rect x="42" y="17" width="1" height="1" fill="#000000" />
<rect x="21" y="18" width="1" height="1" fill="#000000" />
<rect x="22" y="18" width="1" height="1" fill="#AC3232" />
<rect x="23" y="18" width="1" height="1" fill="#AC3232" />
<rect x="24" y="18" width="1" height="1" fill="#AC3232" />
<rect x="25" y="18" width="1" height="1" fill="#AC3232" />
<rect x="26" y="18" width="1" height="1" fill="#912A2A" />
<rect x="27" y="18" width="1" height="1" fill="#E6E6E6" />
<rect x="28" y="18" width="1" height="1" fill="#FFFFFF" />
<rect x="29" y="18" width="1" height="1" fill="#FFFFFF" />
<rect x="30" y="18" width="1" height="1" fill="#FFFFFF" />
<rect x="31" y="18" width="1" height="1" fill="#FFFFFF" />
<rect x="32" y="18" width="1" height="1" fill="#FFFFFF" />
<rect x="33" y="18" width="1" height="1" fill="#FFFFFF" />
<rect x="34" y="18" width="1" height="1" fill="#FFFFFF" />
<rect x="35" y="18" width="1" height="1" fill="#FFFFFF" />
<rect x="36" y="18" width="1" height="1" fill="#E6E6E6" />
<rect x="37" y="18" width="1" height="1" fill="#912A2A" />
<rect x="38" y="18" width="1" height="1" fill="#AC3232" />
<rect x="39" y="18" width="1" height="1" fill="#AC3232" />
<rect x="40" y="18" width="1" height="1" fill="#AC3232" />
<rect x="41" y="18" width="1" height="1" fill="#AC3232" />
<rect x="42" y="18" width="1" height="1" fill="#000000" />
<rect x="21" y="19" width="1" height="1" fill="#000000" />
<rect x="22" y="19" width="1" height="1" fill="#AC3232" />
<rect x="23" y="19" width="1" height="1" fill="#AC3232" />
<rect x="24" y="19" width="1" height="1" fill="#AC3232" />
<rect x="25" y="19" width="1" height="1" fill="#AC3232" />
<rect x="26" y="19" width="1" height="1" fill="#912A2A" />
<rect x="27" y="19" width="1" height="1" fill="#E6E6E6" />
<rect x="28" y="19" width="1" height="1" fill="#E6E6E6" />
<rect x="29" y="19" width="1" height="1" fill="#FFFFFF" />
<rect x="30" y="19" width="1" height="1" fill="#FFFFFF" />
<rect x="31" y="19" width="1" height="1" fill="#FFFFFF" />
<rect x="32" y="19" width="1" height="1" fill="#FFFFFF" />
<rect x="33" y="19" width="1" height="1" fill="#FFFFFF" />
<rect x="34" y="19" width="1" height="1" fill="#FFFFFF" />
<rect x="35" y="19" width="1" height="1" fill="#E6E6E6" />
<rect x="36" y="19" width="1" height="1" fill="#E6E6E6" />
<rect x="37" y="19" width="1" height="1" fill="#912A2A" />
<rect x="38" y="19" width="1" height="1" fill="#AC3232" />
<rect x="39" y="19" width="1" height="1" fill="#AC3232" />
<rect x="40" y="19" width="1" height="1" fill="#AC3232" />
<rect x="41" y="19" width="1" height="1" fill="#AC3232" />
<rect x="42" y="19" width="1" height="1" fill="#000000" />
<rect x="22" y="20" width="1" height="1" fill="#000000" />
<rect x="23" y="20" width="1" height="1" fill="#AC3232" />
<rect x="24" y="20" width="1" height="1" fill="#AC3232" />
<rect x="25" y="20" width="1" height="1" fill="#AC3232" />
<rect x="26" y="20" width="1" height="1" fill="#AC3232" />
<rect x="27" y="20" width="1" height="1" fill="#912A2A" />
<rect x="28" y="20" width="1" height="1" fill="#E6E6E6" />
<rect x="29" y="20" width="1" height="1" fill="#E6E6E6" />
<rect x="30" y="20" width="1" height="1" fill="#E6E6E6" />
<rect x="31" y="20" width="1" height="1" fill="#E6E6E6" />
<rect x="32" y="20" width="1" height="1" fill="#E6E6E6" />
<rect x="33" y="20" width="1" height="1" fill="#E6E6E6" />
<rect x="34" y="20" width="1" height="1" fill="#E6E6E6" />
<rect x="35" y="20" width="1" height="1" fill="#E6E6E6" />
<rect x="36" y="20" width="1" height="1" fill="#912A2A" />
<rect x="37" y="20" width="1" height="1" fill="#AC3232" />
<rect x="38" y="20" width="1" height="1" fill="#AC3232" />
<rect x="39" y="20" width="1" height="1" fill="#AC3232" />
<rect x="40" y="20" width="1" height="1" fill="#AC3232" />
<rect x="41" y="20" width="1" height="1" fill="#000000" />
<rect x="22" y="21" width="1" height="1" fill="#000000" />
<rect x="23" y="21" width="1" height="1" fill="#AC3232" />
<rect x="24" y="21" width="1" height="1" fill="#AC3232" />
<rect x="25" y="21" width="1" height="1" fill="#AC3232" />
<rect x="26" y="21" width="1" height="1" fill="#AC3232" />
<rect x="27" y="21" width="1" height="1" fill="#AC3232" />
<rect x="28" y="21" width="1" height="1" fill="#912A2A" />
<rect x="29" y="21" width="1" height="1" fill="#912A2A" />
<rect x="30" y="21" width="1" height="1" fill="#E6E6E6" />
<rect x="31" y="21" width="1" height="1" fill="#E6E6E6" />
<rect x="32" y="21" width="1" height="1" fill="#E6E6E6" />
<rect x="33" y="21" width="1" height="1" fill="#E6E6E6" />
<rect x="34" y="21" width="1" height="1" fill="#912A2A" />
<rect x="35" y="21" width="1" height="1" fill="#912A2A" />
<rect x="36" y="21" width="1" height="1" fill="#AC3232" />
<rect x="37" y="21" width="1" height="1" fill="#AC3232" />
<rect x="38" y="21" width="1" height="1" fill="#AC3232" />
<rect x="39" y="21" width="1" height="1" fill="#AC3232" />
<rect x="40" y="21" width="1" height="1" fill="#AC3232" />
<rect x="41" y="21" width="1" height="1" fill="#000000" />
<rect x="23" y="22" width="1" height="1" fill="#000000" />
<rect x="24" y="22" width="1" height="1" fill="#AC3232" />
<rect x="25" y="22" width="1" height="1" fill="#AC3232" />
<rect x="26" y="22" width="1" height="1" fill="#AC3232" />
<rect x="27" y="22" width="1" height="1" fill="#AC3232" />
<rect x="28" y="22" width="1" height="1" fill="#AC3232" />
<rect x="29" y="22" width="1" height="1" fill="#AC3232" />
<rect x="30" y="22" width="1" height="1" fill="#912A2A" />
<rect x="31" y="22" width="1" height="1" fill="#912A2A" />
<rect x="32" y="22" width="1" height="1" fill="#912A2A" />
<rect x="33" y="22" width="1" height="1" fill="#912A2A" />
<rect x="34" y="22" width="1" height="1" fill="#AC3232" />
<rect x="35" y="22" width="1" height="1" fill="#AC3232" />
<rect x="36" y="22" width="1" height="1" fill="#AC3232" />
<rect x="37" y="22" width="1" height="1" fill="#AC3232" />
<rect x="38" y="22" width="1" height="1" fill="#AC3232" />
<rect x="39" y="22" width="1" height="1" fill="#AC3232" />
<rect x="40" y="22" width="1" height="1" fill="#000000" />
<rect x="24" y="23" width="1" height="1" fill="#000000" />
<rect x="25" y="23" width="1" height="1" fill="#AC3232" />
<rect x="26" y="23" width="1" height="1" fill="#AC3232" />
<rect x="27" y="23" width="1" height="1" fill="#AC3232" />
<rect x="28" y="23" width="1" height="1" fill="#AC3232" />
<rect x="29" y="23" width="1" height="1" fill="#AC3232" />
<rect x="30" y="23" width="1" height="1" fill="#AC3232" />
<rect x="31" y="23" width="1" height="1" fill="#AC3232" />
<rect x="32" y="23" width="1" height="1" fill="#AC3232" />
<rect x="33" y="23" width="1" height="1" fill="#AC3232" />
<rect x="34" y="23" width="1" height="1" fill="#AC3232" />
<rect x="35" y="23" width="1" height="1" fill="#AC3232" />
<rect x="36" y="23" width="1" height="1" fill="#AC3232" />
<rect x="37" y="23" width="1" height="1" fill="#AC3232" />
<rect x="38" y="23" width="1" height="1" fill="#AC3232" />
<rect x="39" y="23" width="1" height="1" fill="#000000" />
<rect x="25" y="24" width="1" height="1" fill="#000000" />
<rect x="26" y="24" width="1" height="1" fill="#AC3232" />
<rect x="27" y="24" width="1" height="1" fill="#AC3232" />
<rect x="28" y="24" width="1" height="1" fill="#AC3232" />
<rect x="29" y="24" width="1" height="1" fill="#AC3232" />
<rect x="30" y="24" width="1" height="1" fill="#AC3232" />
<rect x="31" y="24" width="1" height="1" fill="#AC3232" />
<rect x="32" y="24" width="1" height="1" fill="#AC3232" />
<rect x="33" y="24" width="1" height="1" fill="#AC3232" />
<rect x="34" y="24" width="1" height="1" fill="#AC3232" />
<rect x="35" y="24" width="1" height="1" fill="#AC3232" />
<rect x="36" y="24" width="1" height="1" fill="#AC3232" />
<rect x="37" y="24" width="1" height="1" fill="#AC3232" />
<rect x="38" y="24" width="1" height="1" fill="#000000" />
<rect x="26" y="25" width="1" height="1" fill="#000000" />
<rect x="27" y="25" width="1" height="1" fill="#AC3232" />
<rect x="28" y="25" width="1" height="1" fill="#AC3232" />
<rect x="29" y="25" width="1" height="1" fill="#AC3232" />
<rect x="30" y="25" width="1" height="1" fill="#AC3232" />
<rect x="31" y="25" width="1" height="1" fill="#AC3232" />
<rect x="32" y="25" width="1" height="1" fill="#AC3232" />
<rect x="33" y="25" width="1" height="1" fill="#AC3232" />
<rect x="34" y="25" width="1" height="1" fill="#AC3232" />
<rect x="35" y="25" width="1" height="1" fill="#AC3232" />
<rect x="36" y="25" width="1" height="1" fill="#AC3232" />
<rect x="37" y="25" width="1" height="1" fill="#000000" />
<rect x="26" y="26" width="1" height="1" fill="#000000" />
<rect x="27" y="26" width="1" height="1" fill="#AC3232" />
<rect x="28" y="26" width="1" height="1" fill="#AC3232" />
<rect x="29" y="26" width="1" height="1" fill="#AC3232" />
<rect x="30" y="26" width="1" height="1" fill="#AC3232" />
<rect x="31" y="26" width="1" height="1" fill="#AC3232" />
<rect x="32" y="26" width="1" height="1" fill="#AC3232" />
<rect x="33" y="26" width="1" height="1" fill="#AC3232" />
<rect x="34" y="26" width="1" height="1" fill="#AC3232" />
<rect x="35" y="26" width="1" height="1" fill="#AC3232" />
<rect x="36" y="26" width="1" height="1" fill="#AC3232" />
<rect x="37" y="26" width="1" height="1" fill="#000000" />
<rect x="27" y="27" width="1" height="1" fill="#000000" />
<rect x="28" y="27" width="1" height="1" fill="#AC3232" />
<rect x="29" y="27" width="1" height="1" fill="#AC3232" />
<rect x="30" y="27" width="1" height="1" fill="#AC3232" />
<rect x="31" y="27" width="1" height="1" fill="#AC3232" />
<rect x="32" y="27" width="1" height="1" fill="#AC3232" />
<rect x="33" y="27" width="1" height="1" fill="#AC3232" />
<rect x="34" y="27" width="1" height="1" fill="#AC3232" />
<rect x="35" y="27" width="1" height="1" fill="#AC3232" />
<rect x="36" y="27" width="1" height="1" fill="#000000" />
<rect x="28" y="28" width="1" height="1" fill="#000000" />
<rect x="29" y="28" width="1" height="1" fill="#AC3232" />
<rect x="30" y="28" width="1" height="1" fill="#AC3232" />
<rect x="31" y="28" width="1" height="1" fill="#AC3232" />
<rect x="32" y="28" width="1" height="1" fill="#AC3232" />
<rect x="33" y="28" width="1" height="1" fill="#AC3232" />
<rect x="34" y="28" width="1" height="1" fill="#AC3232" />
<rect x="35" y="28" width="1" height="1" fill="#000000" />
<rect x="29" y="29" width="1" height="1" fill="#000000" />
<rect x="30" y="29" width="1" height="1" fill="#AC3232" />
<rect x="31" y="29" width="1" height="1" fill="#AC3232" />
<rect x="32" y="29" width="1" height="1" fill="#AC3232" />
<rect x="33" y="29" width="1" height="1" fill="#AC3232" />
<rect x="34" y="29" width="1" height="1" fill="#000000" />
<rect x="30" y="30" width="1" height="1" fill="#000000" />
<rect x="31" y="30" width="1" height="1" fill="#AC3232" />
<rect x="32" y="30" width="1" height="1" fill="#AC3232" />
<rect x="33" y="30" width="1" height="1" fill="#000000" />
<rect x="30" y="31" width="1" height="1" fill="#000000" />
<rect x="31" y="31" width="1" height="1" fill="#AC3232" />
<rect x="32" y="31" width="1" height="1" fill="#AC3232" />
<rect x="33" y="31" width="1" height="1" fill="#000000" />
<rect x="31" y="32" width="1" height="1" fill="#000000" />
<rect x="32" y="32" width="1" height="1" fill="#000000" />
</svg>